<svg width="43" height="50" viewBox="0 0 43 50" fill="none" xmlns="http://www.w3.org/2000/svg">
<path fill-rule="evenodd" clip-rule="evenodd" d="M22.7647 50L22.1324 42.5H21.5C15.5137 42.5 10.4338 40.4375 6.26029 36.3125C2.08676 32.1875 0 27.1667 0 21.25C0 15.3333 2.08676 10.3125 6.26029 6.1875C10.4338 2.0625 15.5137 0 21.5 0C24.4931 0 27.2856 0.551667 29.8774 1.655C32.4709 2.76 34.7482 4.28083 36.7094 6.2175C38.6688 8.15583 40.2067 10.4058 41.323 12.9675C42.441 15.5308 43 18.2917 43 21.25C43 24.375 42.484 27.375 41.452 30.25C40.4183 33.125 39.0061 35.7917 37.2152 38.25C35.4227 40.7083 33.2938 42.9375 30.8285 44.9375C28.3615 46.9375 25.6735 48.625 22.7647 50ZM21.5 35C22.1911 35 22.7805 34.7561 23.2683 34.2683C23.7561 33.7805 24 33.1911 24 32.5C24 31.8089 23.7561 31.2195 23.2683 30.7317C22.7805 30.2439 22.1911 30 21.5 30C20.8089 30 20.2195 30.2439 19.7317 30.7317C19.2439 31.2195 19 31.8089 19 32.5C19 33.1911 19.2439 33.7805 19.7317 34.2683C20.2195 34.7561 20.8089 35 21.5 35ZM19.5603 27H23.4397C23.4397 25.75 23.569 24.875 23.8276 24.375C24.0862 23.875 24.9052 22.9583 26.2845 21.625C27.0603 20.875 27.7069 20.0625 28.2241 19.1875C28.7414 18.3125 29 17.375 29 16.375C29 14.25 28.2569 12.6558 26.7707 11.5925C25.2828 10.5308 23.5259 10 21.5 10C19.6034 10 18.0086 10.51 16.7155 11.53C15.4224 12.5517 14.5172 13.7917 14 15.25L17.6207 16.625C17.8362 15.9167 18.2457 15.2183 18.8491 14.53C19.4526 13.8433 20.3362 13.5 21.5 13.5C22.6638 13.5 23.5371 13.8125 24.1198 14.4375C24.7009 15.0625 24.9914 15.75 24.9914 16.5C24.9914 17.2083 24.7759 17.8433 24.3448 18.405C23.9138 18.9683 23.3966 19.5417 22.7931 20.125C21.2845 21.375 20.369 22.3642 20.0466 23.0925C19.7224 23.8225 19.5603 25.125 19.5603 27Z" fill="#D16527"/>
</svg>
