<svg width="35" height="35" viewBox="0 0 35 35" fill="none" xmlns="http://www.w3.org/2000/svg">
<path d="M35.0009 4.375C35.0009 6.79306 31.5208 8.75 27.2233 8.75C22.9283 8.75 19.4453 6.79306 19.4453 4.375C19.4453 1.95825 22.9283 0 27.2233 0C31.5208 0 35.0009 1.95825 35.0009 4.375Z" fill="#D16527"/>
<path d="M19.4453 8.75C21.354 10.0637 24.0831 10.8643 27.2233 10.8643C30.3618 10.8643 33.0939 10.0637 35.0009 8.75V11.9291C32.833 12.9943 30.1701 13.6111 27.2233 13.6111C24.2761 13.6111 21.6136 12.9943 19.4453 11.9291V8.75Z" fill="#D16527"/>
<path d="M23.3329 24.7915C23.3329 27.2096 19.8528 29.1665 15.5551 29.1665C11.26 29.1665 7.77734 27.2096 7.77734 24.7915C7.77734 22.3748 11.26 20.4165 15.5551 20.4165C19.8528 20.4165 23.3329 22.3748 23.3329 24.7915Z" fill="#D16527"/>
<path d="M26.9793 23.5026C26.7273 23.5026 26.4963 23.4663 26.25 23.4572V26.2127C26.495 26.2205 26.7299 26.2498 26.9793 26.2498C30.0182 26.2498 32.7644 25.6329 35 24.5677V21.3887C33.0334 22.7019 30.2159 23.5026 26.9793 23.5026Z" fill="#D16527"/>
<path d="M26.9793 28.3639C26.7273 28.3639 26.4963 28.3276 26.25 28.3181V31.0736C26.495 31.0819 26.7299 31.1111 26.9793 31.1111C30.0182 31.1111 32.7644 30.4943 35 29.4291V26.25C33.0334 27.5632 30.2159 28.3639 26.9793 28.3639Z" fill="#D16527"/>
<path d="M7.77734 30.1387C9.68562 31.4519 12.4148 32.2526 15.5551 32.2526C18.6941 32.2526 21.4259 31.4519 23.3329 30.1387V33.3177C21.165 34.3829 18.502 34.9998 15.5551 34.9998C12.6083 34.9998 9.94526 34.3829 7.77734 33.3177V30.1387Z" fill="#D16527"/>
<path d="M7.29172 8.74994H4.37495C3.56864 8.74994 2.91678 8.09763 2.91678 7.29176H2.91371H2.91678C2.91678 6.48545 3.56864 5.83315 4.37495 5.83315V5.83183V5.83315H7.29172C8.09759 5.83315 8.74989 6.48545 8.74989 7.29176H11.6667C11.6667 4.87634 9.70713 2.91679 7.29172 2.91679V0H4.37495V2.91679C1.95954 2.91679 0 4.87634 0 7.29176C0 9.70718 1.95954 11.6667 4.37495 11.6667H7.29172C8.09759 11.6667 8.74989 12.3186 8.74989 13.1249H8.74683C8.74683 13.9312 8.09496 14.5831 7.28866 14.5831H4.37495C3.56864 14.5831 2.91678 13.9312 2.91678 13.1249H0C0 15.5403 1.95954 17.4999 4.37495 17.4999V20.4167H7.29172V17.4999C9.70713 17.4968 11.6636 15.5403 11.6636 13.1249H11.6667C11.6667 10.7095 9.70713 8.74994 7.29172 8.74994Z" fill="#D16527"/>
<path d="M19.4453 15.5557C21.354 16.8689 24.0831 17.6695 27.2233 17.6695C30.3618 17.6695 33.0939 16.8689 35.0009 15.5557V18.7347C32.833 19.7995 30.1701 20.4168 27.2233 20.4168C24.2761 20.4168 21.6136 19.7995 19.4453 18.7347V15.5557Z" fill="#D16527"/>
</svg>
