<svg width="49" height="49" viewBox="0 0 49 49" fill="none" xmlns="http://www.w3.org/2000/svg">
<path fill-rule="evenodd" clip-rule="evenodd" d="M24.4576 31.3052H24.4661V33.1446H23.4102L24.4576 31.3052Z" fill="#EDEDED"/>
<path fill-rule="evenodd" clip-rule="evenodd" d="M34.2419 16.9467C34.1652 17.117 34.0545 17.2617 33.9183 17.381C33.782 17.4917 33.6202 17.5853 33.4244 17.645C33.237 17.7046 33.0241 17.7386 32.7857 17.7386C32.6664 17.7386 32.5472 17.7301 32.4365 17.7139C32.3258 17.6961 32.2236 17.6799 32.1385 17.6535C32.0448 17.6364 31.9767 17.6109 31.9171 17.5853C31.8574 17.5598 31.8234 17.5428 31.8064 17.5257C31.7893 17.5087 31.7723 17.4917 31.7638 17.4746C31.7553 17.4576 31.7553 17.4321 31.7467 17.4065C31.7382 17.381 31.7382 17.3469 31.7382 17.3128C31.7382 17.2703 31.7297 17.2277 31.7297 17.1774C31.7297 17.117 31.7382 17.0659 31.7382 17.0233C31.7467 16.9892 31.7467 16.9552 31.7638 16.9305C31.7723 16.9041 31.7808 16.887 31.7893 16.8785C31.8064 16.87 31.8149 16.8624 31.8319 16.8624C31.8574 16.8624 31.8915 16.87 31.9341 16.8964C31.9682 16.9211 32.0278 16.9467 32.0959 16.9722C32.164 17.0063 32.2492 17.0318 32.3514 17.0574C32.445 17.0752 32.5643 17.0914 32.7005 17.0914C32.8197 17.0914 32.9304 17.0752 33.0326 17.0488C33.1263 17.0233 33.2115 16.9892 33.2796 16.9305C33.3477 16.8785 33.3988 16.8104 33.4329 16.7252C33.4754 16.6495 33.4925 16.5464 33.4925 16.4366C33.4925 16.3335 33.4754 16.2484 33.4414 16.1632C33.4158 16.0866 33.3647 16.027 33.2966 15.9673C33.237 15.9162 33.1518 15.8822 33.0411 15.8481C32.939 15.8226 32.8112 15.8141 32.6579 15.8141C32.5387 15.8141 32.428 15.8141 32.3343 15.8319C32.2321 15.8396 32.147 15.8481 32.0618 15.8481C32.0022 15.8481 31.9511 15.8319 31.9341 15.8055C31.9 15.7715 31.8915 15.7204 31.8915 15.6352V13.898C31.8915 13.8214 31.9085 13.7617 31.9426 13.7277C31.9682 13.6851 32.0192 13.6689 32.0959 13.6689H33.9864C34.0034 13.6689 34.0205 13.6766 34.0375 13.6851C34.0545 13.703 34.0716 13.7192 34.0801 13.7447C34.0886 13.7788 34.0971 13.8128 34.1056 13.8554C34.1056 13.898 34.1141 13.9499 34.1141 14.0172C34.1141 14.1364 34.0971 14.2301 34.0801 14.2812C34.0545 14.3417 34.029 14.3664 33.9864 14.3664H32.5643V15.218C32.6324 15.2094 32.709 15.2094 32.7772 15.2094C32.8538 15.2009 32.9219 15.2009 33.0071 15.2009C33.22 15.2009 33.4073 15.2273 33.5776 15.2776C33.748 15.3287 33.8842 15.4062 34.0034 15.499C34.1141 15.6012 34.1993 15.7204 34.2589 15.866C34.3185 16.0108 34.3526 16.1802 34.3526 16.3676C34.3526 16.589 34.3185 16.7763 34.2419 16.9467ZM25.147 17.415C25.0107 17.5172 24.8489 17.6032 24.6616 17.6535C24.4742 17.7139 24.2613 17.7386 24.0399 17.7386C23.9037 17.7386 23.7759 17.7301 23.6567 17.7046C23.5375 17.6875 23.4353 17.662 23.3416 17.6364C23.248 17.6109 23.1713 17.5768 23.1117 17.5428C23.0521 17.5172 23.0095 17.4917 22.9925 17.4746C22.9755 17.4576 22.9584 17.4406 22.9499 17.4235C22.9414 17.398 22.9329 17.3724 22.9329 17.3469C22.9244 17.3222 22.9159 17.2881 22.9159 17.2447C22.9073 17.2021 22.9073 17.151 22.9073 17.0914C22.9073 16.9892 22.9159 16.9211 22.9329 16.887C22.9499 16.8445 22.9755 16.8283 23.0095 16.8283C23.0266 16.8283 23.0606 16.8445 23.1117 16.87C23.1628 16.8964 23.2309 16.9305 23.3076 16.9552C23.3842 16.9892 23.4779 17.0233 23.5801 17.0488C23.6908 17.0752 23.81 17.0914 23.9377 17.0914C24.057 17.0914 24.1506 17.0752 24.2358 17.0488C24.3295 17.0233 24.3976 16.9807 24.4572 16.9381C24.5168 16.887 24.5679 16.8283 24.5935 16.7593C24.6275 16.6912 24.6446 16.6154 24.6446 16.5294C24.6446 16.4366 24.619 16.3506 24.5849 16.2824C24.5509 16.2058 24.4998 16.1462 24.4231 16.0866C24.355 16.0355 24.2699 15.9929 24.1592 15.9673C24.0485 15.9418 23.9207 15.9248 23.7759 15.9248H23.4268C23.4013 15.9248 23.3842 15.9248 23.3587 15.9162C23.3416 15.9077 23.3246 15.8907 23.3161 15.8737C23.3076 15.8481 23.2991 15.8141 23.2905 15.7715C23.282 15.7374 23.282 15.6872 23.282 15.619C23.282 15.5586 23.282 15.5075 23.2905 15.4743C23.2991 15.4308 23.3076 15.4062 23.3161 15.3883C23.3246 15.3627 23.3416 15.3457 23.3587 15.3457C23.3757 15.338 23.3927 15.3287 23.4183 15.3287H23.7674C23.8867 15.3287 23.9974 15.3116 24.091 15.2861C24.1847 15.2614 24.2613 15.218 24.321 15.1669C24.3806 15.1158 24.4317 15.0562 24.4657 14.9804C24.4998 14.9122 24.5168 14.8262 24.5168 14.7411C24.5168 14.6729 24.4998 14.6048 24.4828 14.5452C24.4572 14.4864 24.4231 14.4345 24.3806 14.3919C24.338 14.3417 24.2784 14.3076 24.2103 14.2812C24.1421 14.2557 24.057 14.2472 23.9633 14.2472C23.8526 14.2472 23.7504 14.2642 23.6567 14.2897C23.5631 14.3238 23.4779 14.3579 23.4013 14.4004C23.3331 14.4345 23.265 14.4686 23.2139 14.5026C23.1628 14.5367 23.1202 14.5546 23.0947 14.5546C23.0777 14.5546 23.0691 14.5546 23.0521 14.5452C23.0436 14.5367 23.0351 14.5205 23.0266 14.5026C23.018 14.4771 23.0095 14.4515 23.001 14.4098V14.1364C23.001 14.1024 23.0095 14.0683 23.0095 14.0513C23.018 14.0257 23.0266 14.0087 23.0351 13.9917C23.0436 13.9746 23.0606 13.9576 23.0777 13.9321C23.1032 13.9159 23.1458 13.8895 23.2054 13.8478C23.2735 13.8043 23.3502 13.7711 23.4523 13.7371C23.546 13.6936 23.6567 13.6689 23.7845 13.6425C23.9122 13.6085 24.0485 13.5999 24.1932 13.5999C24.3891 13.5999 24.5594 13.6255 24.7127 13.6689C24.8575 13.7107 24.9852 13.7788 25.0874 13.8639C25.1896 13.9499 25.2662 14.0513 25.3173 14.179C25.3684 14.3076 25.394 14.443 25.394 14.5963C25.394 14.724 25.3854 14.8356 25.3514 14.9369C25.3173 15.0485 25.2747 15.1413 25.2151 15.218C25.1555 15.3031 25.0789 15.3721 24.9937 15.4308C24.9 15.4905 24.7978 15.533 24.6786 15.5586V15.5671C24.8234 15.585 24.9426 15.619 25.0618 15.6778C25.1725 15.7289 25.2662 15.7979 25.3429 15.8822C25.4195 15.9673 25.4791 16.061 25.5217 16.1632C25.5558 16.2654 25.5813 16.3761 25.5813 16.4953C25.5813 16.6997 25.5387 16.87 25.4621 17.0233C25.3854 17.1851 25.2832 17.3128 25.147 17.415ZM25.5983 33.1446C25.6324 33.1446 25.6665 33.1693 25.6835 33.2212C25.709 33.2629 25.7261 33.3481 25.7261 33.4682C25.7261 33.5704 25.709 33.6547 25.692 33.7058C25.6665 33.7654 25.6409 33.7909 25.5983 33.7909H25.2492V34.5148C25.2492 34.5326 25.2407 34.5488 25.2236 34.5667C25.2151 34.5829 25.1896 34.5914 25.164 34.6084C25.13 34.6169 25.0959 34.6255 25.0448 34.6255C24.9937 34.6348 24.9256 34.6348 24.8489 34.6348C24.7808 34.6348 24.7127 34.6348 24.6616 34.6255C24.6105 34.6255 24.5764 34.6169 24.5424 34.6084C24.5168 34.5914 24.4913 34.5829 24.4828 34.5667C24.4742 34.5488 24.4657 34.5326 24.4657 34.5148V33.7909H22.9329C22.9073 33.7909 22.8818 33.7833 22.8562 33.7833C22.8392 33.7739 22.8137 33.7569 22.8051 33.7313C22.7881 33.7058 22.7796 33.6632 22.7711 33.6206C22.7626 33.5704 22.7541 33.5022 22.7541 33.4247C22.7541 33.3575 22.7626 33.3055 22.7626 33.2553C22.7626 33.2033 22.7711 33.1607 22.7796 33.1267C22.7881 33.0841 22.7966 33.05 22.8051 33.0083C22.8222 32.9734 22.8392 32.9393 22.8562 32.8976L24.0995 30.7082C24.1081 30.6912 24.1251 30.6741 24.1506 30.6665C24.1762 30.6486 24.2103 30.6401 24.2528 30.6316C24.3039 30.623 24.355 30.6145 24.4231 30.606H24.9426C25.0193 30.6145 25.0703 30.623 25.1214 30.6316C25.164 30.6486 25.1981 30.6571 25.2151 30.6741C25.2321 30.6912 25.2492 30.7082 25.2492 30.7346V33.1446H25.5983ZM14.4426 17.6705C14.4256 17.6705 14.4086 17.662 14.4 17.6535C14.383 17.645 14.366 17.6279 14.3575 17.6032C14.349 17.5768 14.3404 17.5428 14.3319 17.5087C14.3234 17.467 14.3234 17.415 14.3234 17.3563C14.3234 17.2958 14.3234 17.2447 14.3319 17.2106C14.3319 17.1681 14.3404 17.134 14.3575 17.1093C14.366 17.0829 14.3745 17.0659 14.3915 17.0574C14.4086 17.0488 14.4256 17.0412 14.4426 17.0412H15.1835V14.443L14.5448 14.7922C14.4937 14.8177 14.4597 14.8356 14.4256 14.8356C14.4 14.8433 14.3745 14.8356 14.3575 14.8177C14.3404 14.8015 14.3319 14.7675 14.3234 14.724C14.3149 14.6815 14.3149 14.6227 14.3149 14.5452V14.426C14.3149 14.3919 14.3234 14.3664 14.3319 14.3417C14.3404 14.3153 14.349 14.2982 14.366 14.2812C14.383 14.2735 14.4 14.2557 14.4256 14.2386L15.2857 13.6851C15.2942 13.6766 15.3027 13.6689 15.3198 13.6596C15.3368 13.6596 15.3538 13.651 15.3794 13.651C15.4049 13.651 15.439 13.6425 15.4816 13.6425H15.6348C15.7115 13.6425 15.7796 13.6425 15.8222 13.651C15.8733 13.651 15.9073 13.6596 15.9329 13.6596C15.9584 13.6689 15.9755 13.6766 15.984 13.6936C15.9925 13.703 15.9925 13.7192 15.9925 13.7371V17.0412H16.6482C16.6653 17.0412 16.6823 17.0488 16.6993 17.0574C16.7163 17.0659 16.7249 17.0829 16.7419 17.1093C16.7504 17.134 16.7589 17.1681 16.7674 17.2106V17.3563C16.7674 17.415 16.7674 17.467 16.7589 17.5087C16.7589 17.5428 16.7504 17.5768 16.7334 17.6032C16.7249 17.6279 16.7078 17.645 16.6993 17.6535C16.6823 17.662 16.6653 17.6705 16.6482 17.6705H14.4426ZM16.5716 31.1851C16.6227 31.3128 16.6482 31.4491 16.6482 31.5938C16.6482 31.7309 16.6312 31.8578 16.6142 31.9779C16.5886 32.1048 16.5375 32.241 16.4524 32.3858C16.3757 32.5306 16.265 32.6924 16.1288 32.8712C15.984 33.0424 15.7966 33.2459 15.5582 33.4843L15.0898 33.9621H16.6653C16.6908 33.9621 16.7078 33.9621 16.7249 33.9783C16.7419 33.9868 16.7589 34.0123 16.7674 34.0379C16.7845 34.0634 16.793 34.0975 16.8015 34.1409C16.8015 34.1826 16.81 34.2252 16.81 34.2857C16.81 34.3444 16.8015 34.3955 16.8015 34.4381C16.793 34.4807 16.7845 34.5148 16.776 34.5403C16.7674 34.5667 16.7504 34.5914 16.7334 34.6008C16.7163 34.6084 16.6993 34.6169 16.6823 34.6169H14.383C14.3404 34.6169 14.2979 34.6169 14.2638 34.6084C14.2297 34.6008 14.2042 34.5829 14.1872 34.5573C14.1616 34.5326 14.1531 34.4986 14.1446 34.4551C14.1361 34.4041 14.1275 34.3538 14.1275 34.2763C14.1275 34.209 14.1275 34.1486 14.1361 34.1069C14.1446 34.0549 14.1531 34.0123 14.1701 33.9697C14.1872 33.9357 14.2042 33.9016 14.2297 33.8599C14.2638 33.825 14.2893 33.7833 14.3319 33.7398L15.0302 32.9989C15.1665 32.8542 15.2772 32.7264 15.3623 32.6072C15.4475 32.488 15.5071 32.3773 15.5582 32.2836C15.6008 32.1908 15.6348 32.0963 15.6519 32.012C15.6689 31.9345 15.6774 31.8493 15.6774 31.7812C15.6774 31.7131 15.6689 31.6449 15.6519 31.5862C15.6263 31.5257 15.5923 31.4746 15.5497 31.4235C15.5071 31.3809 15.456 31.3469 15.3964 31.3213C15.3283 31.2958 15.2516 31.2788 15.1665 31.2788C15.0473 31.2788 14.9365 31.2958 14.8429 31.3298C14.7492 31.3554 14.6726 31.3895 14.5959 31.432C14.5278 31.4661 14.4682 31.5002 14.4171 31.5342C14.3745 31.5683 14.3319 31.5862 14.3064 31.5862C14.2893 31.5862 14.2723 31.5768 14.2638 31.5683C14.2468 31.5521 14.2382 31.5342 14.2297 31.5002C14.2212 31.4746 14.2127 31.4414 14.2127 31.3895C14.2042 31.3392 14.2042 31.2788 14.2042 31.2106V31.0923C14.2127 31.0573 14.2127 31.0318 14.2212 31.0063C14.2297 30.9816 14.2382 30.9637 14.2468 30.9475C14.2553 30.9296 14.2723 30.9041 14.2979 30.887C14.3234 30.8615 14.3745 30.8274 14.4426 30.7848C14.5108 30.7508 14.5959 30.7167 14.6981 30.6741C14.8003 30.6401 14.911 30.6145 15.0302 30.5898C15.1494 30.5634 15.2772 30.5464 15.4049 30.5464C15.6178 30.5464 15.7966 30.5719 15.9499 30.6316C16.1117 30.6826 16.2395 30.7508 16.3417 30.8444C16.4438 30.9381 16.5205 31.0488 16.5716 31.1851ZM32.9986 12.2715C31.0655 12.2715 29.5071 13.8299 29.5071 15.7638C29.5071 17.3299 30.546 18.6583 31.9681 19.0935V23.2151H25.2832V19.0935C26.7054 18.6498 27.7358 17.3299 27.7358 15.7638C27.7358 13.8299 26.1774 12.2715 24.2528 12.2715C22.3197 12.2715 20.7614 13.8299 20.7614 15.7638C20.7614 17.3299 21.7918 18.6583 23.2139 19.0935V23.2151H16.5375V19.0935C17.9511 18.6583 18.9901 17.3299 18.9901 15.7638C18.9901 13.8299 17.4232 12.2715 15.4986 12.2715C13.574 12.2715 12.0156 13.8299 12.0156 15.7638C12.0156 17.3299 13.046 18.6583 14.4682 19.0935V29.4053C13.046 29.8396 12.0156 31.1766 12.0156 32.735C12.0156 34.668 13.574 36.2264 15.4986 36.2264C17.4232 36.2264 18.9901 34.668 18.9901 32.735C18.9901 31.1766 17.9511 29.8396 16.5375 29.4053V25.2836H23.2139V29.4053C21.7918 29.8396 20.7614 31.1766 20.7614 32.735C20.7614 34.668 22.3197 36.2264 24.2528 36.2264C26.1774 36.2264 27.7358 34.668 27.7358 32.735C27.7358 31.1766 26.7054 29.849 25.2832 29.4053V25.2836H34.0375V19.0935C35.4511 18.6583 36.49 17.3299 36.49 15.7638C36.49 13.8299 34.9231 12.2715 32.9986 12.2715Z" fill="#EDEDED"/>
<path fill-rule="evenodd" clip-rule="evenodd" d="M39.5304 34.7019C39.5304 37.3682 37.3673 39.5312 34.7019 39.5312H13.7871C11.1216 39.5312 8.96714 37.3682 8.96714 34.7019V13.7871C8.96714 11.1216 11.1216 8.95862 13.7871 8.95862H34.7019C37.3673 8.95862 39.5304 11.1216 39.5304 13.7871V34.7019ZM24.2445 0C10.8576 0 0 10.8491 0 24.2445C0 37.6313 10.8576 48.489 24.2445 48.489C37.6398 48.489 48.4975 37.6313 48.4975 24.2445C48.4975 10.8491 37.6398 0 24.2445 0Z" fill="#EDEDED"/>
<path fill-rule="evenodd" clip-rule="evenodd" d="M24.4576 31.3052H24.4661V33.1446H23.4102L24.4576 31.3052Z" fill="#EDEDED"/>
<path fill-rule="evenodd" clip-rule="evenodd" d="M34.2419 16.9467C34.1652 17.117 34.0545 17.2617 33.9183 17.381C33.782 17.4917 33.6202 17.5853 33.4244 17.645C33.237 17.7046 33.0241 17.7386 32.7857 17.7386C32.6664 17.7386 32.5472 17.7301 32.4365 17.7139C32.3258 17.6961 32.2236 17.6799 32.1385 17.6535C32.0448 17.6364 31.9767 17.6109 31.9171 17.5853C31.8574 17.5598 31.8234 17.5428 31.8064 17.5257C31.7893 17.5087 31.7723 17.4917 31.7638 17.4746C31.7553 17.4576 31.7553 17.4321 31.7467 17.4065C31.7382 17.381 31.7382 17.3469 31.7382 17.3128C31.7382 17.2703 31.7297 17.2277 31.7297 17.1774C31.7297 17.117 31.7382 17.0659 31.7382 17.0233C31.7467 16.9892 31.7467 16.9552 31.7638 16.9305C31.7723 16.9041 31.7808 16.887 31.7893 16.8785C31.8064 16.87 31.8149 16.8624 31.8319 16.8624C31.8574 16.8624 31.8915 16.87 31.9341 16.8964C31.9682 16.9211 32.0278 16.9467 32.0959 16.9722C32.164 17.0063 32.2492 17.0318 32.3514 17.0574C32.445 17.0752 32.5643 17.0914 32.7005 17.0914C32.8197 17.0914 32.9304 17.0752 33.0326 17.0488C33.1263 17.0233 33.2115 16.9892 33.2796 16.9305C33.3477 16.8785 33.3988 16.8104 33.4329 16.7252C33.4754 16.6495 33.4925 16.5464 33.4925 16.4366C33.4925 16.3335 33.4754 16.2484 33.4414 16.1632C33.4158 16.0866 33.3647 16.027 33.2966 15.9673C33.237 15.9162 33.1518 15.8822 33.0411 15.8481C32.939 15.8226 32.8112 15.8141 32.6579 15.8141C32.5387 15.8141 32.428 15.8141 32.3343 15.8319C32.2321 15.8396 32.147 15.8481 32.0618 15.8481C32.0022 15.8481 31.9511 15.8319 31.9341 15.8055C31.9 15.7715 31.8915 15.7204 31.8915 15.6352V13.898C31.8915 13.8214 31.9085 13.7617 31.9426 13.7277C31.9682 13.6851 32.0192 13.6689 32.0959 13.6689H33.9864C34.0034 13.6689 34.0205 13.6766 34.0375 13.6851C34.0545 13.703 34.0716 13.7192 34.0801 13.7447C34.0886 13.7788 34.0971 13.8128 34.1056 13.8554C34.1056 13.898 34.1141 13.9499 34.1141 14.0172C34.1141 14.1364 34.0971 14.2301 34.0801 14.2812C34.0545 14.3417 34.029 14.3664 33.9864 14.3664H32.5643V15.218C32.6324 15.2094 32.709 15.2094 32.7772 15.2094C32.8538 15.2009 32.9219 15.2009 33.0071 15.2009C33.22 15.2009 33.4073 15.2273 33.5776 15.2776C33.748 15.3287 33.8842 15.4062 34.0034 15.499C34.1141 15.6012 34.1993 15.7204 34.2589 15.866C34.3185 16.0108 34.3526 16.1802 34.3526 16.3676C34.3526 16.589 34.3185 16.7763 34.2419 16.9467ZM25.147 17.415C25.0107 17.5172 24.8489 17.6032 24.6616 17.6535C24.4742 17.7139 24.2613 17.7386 24.0399 17.7386C23.9037 17.7386 23.7759 17.7301 23.6567 17.7046C23.5375 17.6875 23.4353 17.662 23.3416 17.6364C23.248 17.6109 23.1713 17.5768 23.1117 17.5428C23.0521 17.5172 23.0095 17.4917 22.9925 17.4746C22.9755 17.4576 22.9584 17.4406 22.9499 17.4235C22.9414 17.398 22.9329 17.3724 22.9329 17.3469C22.9244 17.3222 22.9159 17.2881 22.9159 17.2447C22.9073 17.2021 22.9073 17.151 22.9073 17.0914C22.9073 16.9892 22.9159 16.9211 22.9329 16.887C22.9499 16.8445 22.9755 16.8283 23.0095 16.8283C23.0266 16.8283 23.0606 16.8445 23.1117 16.87C23.1628 16.8964 23.2309 16.9305 23.3076 16.9552C23.3842 16.9892 23.4779 17.0233 23.5801 17.0488C23.6908 17.0752 23.81 17.0914 23.9377 17.0914C24.057 17.0914 24.1506 17.0752 24.2358 17.0488C24.3295 17.0233 24.3976 16.9807 24.4572 16.9381C24.5168 16.887 24.5679 16.8283 24.5935 16.7593C24.6275 16.6912 24.6446 16.6154 24.6446 16.5294C24.6446 16.4366 24.619 16.3506 24.5849 16.2824C24.5509 16.2058 24.4998 16.1462 24.4231 16.0866C24.355 16.0355 24.2699 15.9929 24.1592 15.9673C24.0485 15.9418 23.9207 15.9248 23.7759 15.9248H23.4268C23.4013 15.9248 23.3842 15.9248 23.3587 15.9162C23.3416 15.9077 23.3246 15.8907 23.3161 15.8737C23.3076 15.8481 23.2991 15.8141 23.2905 15.7715C23.282 15.7374 23.282 15.6872 23.282 15.619C23.282 15.5586 23.282 15.5075 23.2905 15.4743C23.2991 15.4308 23.3076 15.4062 23.3161 15.3883C23.3246 15.3627 23.3416 15.3457 23.3587 15.3457C23.3757 15.338 23.3927 15.3287 23.4183 15.3287H23.7674C23.8867 15.3287 23.9974 15.3116 24.091 15.2861C24.1847 15.2614 24.2613 15.218 24.321 15.1669C24.3806 15.1158 24.4317 15.0562 24.4657 14.9804C24.4998 14.9122 24.5168 14.8262 24.5168 14.7411C24.5168 14.6729 24.4998 14.6048 24.4828 14.5452C24.4572 14.4864 24.4231 14.4345 24.3806 14.3919C24.338 14.3417 24.2784 14.3076 24.2103 14.2812C24.1421 14.2557 24.057 14.2472 23.9633 14.2472C23.8526 14.2472 23.7504 14.2642 23.6567 14.2897C23.5631 14.3238 23.4779 14.3579 23.4013 14.4004C23.3331 14.4345 23.265 14.4686 23.2139 14.5026C23.1628 14.5367 23.1202 14.5546 23.0947 14.5546C23.0777 14.5546 23.0691 14.5546 23.0521 14.5452C23.0436 14.5367 23.0351 14.5205 23.0266 14.5026C23.018 14.4771 23.0095 14.4515 23.001 14.4098V14.1364C23.001 14.1024 23.0095 14.0683 23.0095 14.0513C23.018 14.0257 23.0266 14.0087 23.0351 13.9917C23.0436 13.9746 23.0606 13.9576 23.0777 13.9321C23.1032 13.9159 23.1458 13.8895 23.2054 13.8478C23.2735 13.8043 23.3502 13.7711 23.4523 13.7371C23.546 13.6936 23.6567 13.6689 23.7845 13.6425C23.9122 13.6085 24.0485 13.5999 24.1932 13.5999C24.3891 13.5999 24.5594 13.6255 24.7127 13.6689C24.8575 13.7107 24.9852 13.7788 25.0874 13.8639C25.1896 13.9499 25.2662 14.0513 25.3173 14.179C25.3684 14.3076 25.394 14.443 25.394 14.5963C25.394 14.724 25.3854 14.8356 25.3514 14.9369C25.3173 15.0485 25.2747 15.1413 25.2151 15.218C25.1555 15.3031 25.0789 15.3721 24.9937 15.4308C24.9 15.4905 24.7978 15.533 24.6786 15.5586V15.5671C24.8234 15.585 24.9426 15.619 25.0618 15.6778C25.1725 15.7289 25.2662 15.7979 25.3429 15.8822C25.4195 15.9673 25.4791 16.061 25.5217 16.1632C25.5558 16.2654 25.5813 16.3761 25.5813 16.4953C25.5813 16.6997 25.5387 16.87 25.4621 17.0233C25.3854 17.1851 25.2832 17.3128 25.147 17.415ZM25.5983 33.1446C25.6324 33.1446 25.6665 33.1693 25.6835 33.2212C25.709 33.2629 25.7261 33.3481 25.7261 33.4682C25.7261 33.5704 25.709 33.6547 25.692 33.7058C25.6665 33.7654 25.6409 33.7909 25.5983 33.7909H25.2492V34.5148C25.2492 34.5326 25.2407 34.5488 25.2236 34.5667C25.2151 34.5829 25.1896 34.5914 25.164 34.6084C25.13 34.6169 25.0959 34.6255 25.0448 34.6255C24.9937 34.6348 24.9256 34.6348 24.8489 34.6348C24.7808 34.6348 24.7127 34.6348 24.6616 34.6255C24.6105 34.6255 24.5764 34.6169 24.5424 34.6084C24.5168 34.5914 24.4913 34.5829 24.4828 34.5667C24.4742 34.5488 24.4657 34.5326 24.4657 34.5148V33.7909H22.9329C22.9073 33.7909 22.8818 33.7833 22.8562 33.7833C22.8392 33.7739 22.8137 33.7569 22.8051 33.7313C22.7881 33.7058 22.7796 33.6632 22.7711 33.6206C22.7626 33.5704 22.7541 33.5022 22.7541 33.4247C22.7541 33.3575 22.7626 33.3055 22.7626 33.2553C22.7626 33.2033 22.7711 33.1607 22.7796 33.1267C22.7881 33.0841 22.7966 33.05 22.8051 33.0083C22.8222 32.9734 22.8392 32.9393 22.8562 32.8976L24.0995 30.7082C24.1081 30.6912 24.1251 30.6741 24.1506 30.6665C24.1762 30.6486 24.2103 30.6401 24.2528 30.6316C24.3039 30.623 24.355 30.6145 24.4231 30.606H24.9426C25.0193 30.6145 25.0703 30.623 25.1214 30.6316C25.164 30.6486 25.1981 30.6571 25.2151 30.6741C25.2321 30.6912 25.2492 30.7082 25.2492 30.7346V33.1446H25.5983ZM14.4426 17.6705C14.4256 17.6705 14.4086 17.662 14.4 17.6535C14.383 17.645 14.366 17.6279 14.3575 17.6032C14.349 17.5768 14.3404 17.5428 14.3319 17.5087C14.3234 17.467 14.3234 17.415 14.3234 17.3563C14.3234 17.2958 14.3234 17.2447 14.3319 17.2106C14.3319 17.1681 14.3404 17.134 14.3575 17.1093C14.366 17.0829 14.3745 17.0659 14.3915 17.0574C14.4086 17.0488 14.4256 17.0412 14.4426 17.0412H15.1835V14.443L14.5448 14.7922C14.4937 14.8177 14.4597 14.8356 14.4256 14.8356C14.4 14.8433 14.3745 14.8356 14.3575 14.8177C14.3404 14.8015 14.3319 14.7675 14.3234 14.724C14.3149 14.6815 14.3149 14.6227 14.3149 14.5452V14.426C14.3149 14.3919 14.3234 14.3664 14.3319 14.3417C14.3404 14.3153 14.349 14.2982 14.366 14.2812C14.383 14.2735 14.4 14.2557 14.4256 14.2386L15.2857 13.6851C15.2942 13.6766 15.3027 13.6689 15.3198 13.6596C15.3368 13.6596 15.3538 13.651 15.3794 13.651C15.4049 13.651 15.439 13.6425 15.4816 13.6425H15.6348C15.7115 13.6425 15.7796 13.6425 15.8222 13.651C15.8733 13.651 15.9073 13.6596 15.9329 13.6596C15.9584 13.6689 15.9755 13.6766 15.984 13.6936C15.9925 13.703 15.9925 13.7192 15.9925 13.7371V17.0412H16.6482C16.6653 17.0412 16.6823 17.0488 16.6993 17.0574C16.7163 17.0659 16.7249 17.0829 16.7419 17.1093C16.7504 17.134 16.7589 17.1681 16.7674 17.2106V17.3563C16.7674 17.415 16.7674 17.467 16.7589 17.5087C16.7589 17.5428 16.7504 17.5768 16.7334 17.6032C16.7249 17.6279 16.7078 17.645 16.6993 17.6535C16.6823 17.662 16.6653 17.6705 16.6482 17.6705H14.4426ZM16.5716 31.1851C16.6227 31.3128 16.6482 31.4491 16.6482 31.5938C16.6482 31.7309 16.6312 31.8578 16.6142 31.9779C16.5886 32.1048 16.5375 32.241 16.4524 32.3858C16.3757 32.5306 16.265 32.6924 16.1288 32.8712C15.984 33.0424 15.7966 33.2459 15.5582 33.4843L15.0898 33.9621H16.6653C16.6908 33.9621 16.7078 33.9621 16.7249 33.9783C16.7419 33.9868 16.7589 34.0123 16.7674 34.0379C16.7845 34.0634 16.793 34.0975 16.8015 34.1409C16.8015 34.1826 16.81 34.2252 16.81 34.2857C16.81 34.3444 16.8015 34.3955 16.8015 34.4381C16.793 34.4807 16.7845 34.5148 16.776 34.5403C16.7674 34.5667 16.7504 34.5914 16.7334 34.6008C16.7163 34.6084 16.6993 34.6169 16.6823 34.6169H14.383C14.3404 34.6169 14.2979 34.6169 14.2638 34.6084C14.2297 34.6008 14.2042 34.5829 14.1872 34.5573C14.1616 34.5326 14.1531 34.4986 14.1446 34.4551C14.1361 34.4041 14.1275 34.3538 14.1275 34.2763C14.1275 34.209 14.1275 34.1486 14.1361 34.1069C14.1446 34.0549 14.1531 34.0123 14.1701 33.9697C14.1872 33.9357 14.2042 33.9016 14.2297 33.8599C14.2638 33.825 14.2893 33.7833 14.3319 33.7398L15.0302 32.9989C15.1665 32.8542 15.2772 32.7264 15.3623 32.6072C15.4475 32.488 15.5071 32.3773 15.5582 32.2836C15.6008 32.1908 15.6348 32.0963 15.6519 32.012C15.6689 31.9345 15.6774 31.8493 15.6774 31.7812C15.6774 31.7131 15.6689 31.6449 15.6519 31.5862C15.6263 31.5257 15.5923 31.4746 15.5497 31.4235C15.5071 31.3809 15.456 31.3469 15.3964 31.3213C15.3283 31.2958 15.2516 31.2788 15.1665 31.2788C15.0473 31.2788 14.9365 31.2958 14.8429 31.3298C14.7492 31.3554 14.6726 31.3895 14.5959 31.432C14.5278 31.4661 14.4682 31.5002 14.4171 31.5342C14.3745 31.5683 14.3319 31.5862 14.3064 31.5862C14.2893 31.5862 14.2723 31.5768 14.2638 31.5683C14.2468 31.5521 14.2382 31.5342 14.2297 31.5002C14.2212 31.4746 14.2127 31.4414 14.2127 31.3895C14.2042 31.3392 14.2042 31.2788 14.2042 31.2106V31.0923C14.2127 31.0573 14.2127 31.0318 14.2212 31.0063C14.2297 30.9816 14.2382 30.9637 14.2468 30.9475C14.2553 30.9296 14.2723 30.9041 14.2979 30.887C14.3234 30.8615 14.3745 30.8274 14.4426 30.7848C14.5108 30.7508 14.5959 30.7167 14.6981 30.6741C14.8003 30.6401 14.911 30.6145 15.0302 30.5898C15.1494 30.5634 15.2772 30.5464 15.4049 30.5464C15.6178 30.5464 15.7966 30.5719 15.9499 30.6316C16.1117 30.6826 16.2395 30.7508 16.3417 30.8444C16.4438 30.9381 16.5205 31.0488 16.5716 31.1851ZM32.9986 12.2715C31.0655 12.2715 29.5071 13.8299 29.5071 15.7638C29.5071 17.3299 30.546 18.6583 31.9681 19.0935V23.2151H25.2832V19.0935C26.7054 18.6498 27.7358 17.3299 27.7358 15.7638C27.7358 13.8299 26.1774 12.2715 24.2528 12.2715C22.3197 12.2715 20.7614 13.8299 20.7614 15.7638C20.7614 17.3299 21.7918 18.6583 23.2139 19.0935V23.2151H16.5375V19.0935C17.9511 18.6583 18.9901 17.3299 18.9901 15.7638C18.9901 13.8299 17.4232 12.2715 15.4986 12.2715C13.574 12.2715 12.0156 13.8299 12.0156 15.7638C12.0156 17.3299 13.046 18.6583 14.4682 19.0935V29.4053C13.046 29.8396 12.0156 31.1766 12.0156 32.735C12.0156 34.668 13.574 36.2264 15.4986 36.2264C17.4232 36.2264 18.9901 34.668 18.9901 32.735C18.9901 31.1766 17.9511 29.8396 16.5375 29.4053V25.2836H23.2139V29.4053C21.7918 29.8396 20.7614 31.1766 20.7614 32.735C20.7614 34.668 22.3197 36.2264 24.2528 36.2264C26.1774 36.2264 27.7358 34.668 27.7358 32.735C27.7358 31.1766 26.7054 29.849 25.2832 29.4053V25.2836H34.0375V19.0935C35.4511 18.6583 36.49 17.3299 36.49 15.7638C36.49 13.8299 34.9231 12.2715 32.9986 12.2715Z" fill="#EDEDED"/>
<path fill-rule="evenodd" clip-rule="evenodd" d="M24.4576 31.3052H24.4661V33.1446H23.4102L24.4576 31.3052Z" fill="#EDEDED"/>
<path fill-rule="evenodd" clip-rule="evenodd" d="M34.2419 16.9467C34.1652 17.117 34.0545 17.2617 33.9183 17.381C33.782 17.4917 33.6202 17.5853 33.4244 17.645C33.237 17.7046 33.0241 17.7386 32.7857 17.7386C32.6664 17.7386 32.5472 17.7301 32.4365 17.7139C32.3258 17.6961 32.2236 17.6799 32.1385 17.6535C32.0448 17.6364 31.9767 17.6109 31.9171 17.5853C31.8574 17.5598 31.8234 17.5428 31.8064 17.5257C31.7893 17.5087 31.7723 17.4917 31.7638 17.4746C31.7553 17.4576 31.7553 17.4321 31.7467 17.4065C31.7382 17.381 31.7382 17.3469 31.7382 17.3128C31.7382 17.2703 31.7297 17.2277 31.7297 17.1774C31.7297 17.117 31.7382 17.0659 31.7382 17.0233C31.7467 16.9892 31.7467 16.9552 31.7638 16.9305C31.7723 16.9041 31.7808 16.887 31.7893 16.8785C31.8064 16.87 31.8149 16.8624 31.8319 16.8624C31.8574 16.8624 31.8915 16.87 31.9341 16.8964C31.9682 16.9211 32.0278 16.9467 32.0959 16.9722C32.164 17.0063 32.2492 17.0318 32.3514 17.0574C32.445 17.0752 32.5643 17.0914 32.7005 17.0914C32.8197 17.0914 32.9304 17.0752 33.0326 17.0488C33.1263 17.0233 33.2115 16.9892 33.2796 16.9305C33.3477 16.8785 33.3988 16.8104 33.4329 16.7252C33.4754 16.6495 33.4925 16.5464 33.4925 16.4366C33.4925 16.3335 33.4754 16.2484 33.4414 16.1632C33.4158 16.0866 33.3647 16.027 33.2966 15.9673C33.237 15.9162 33.1518 15.8822 33.0411 15.8481C32.939 15.8226 32.8112 15.8141 32.6579 15.8141C32.5387 15.8141 32.428 15.8141 32.3343 15.8319C32.2321 15.8396 32.147 15.8481 32.0618 15.8481C32.0022 15.8481 31.9511 15.8319 31.9341 15.8055C31.9 15.7715 31.8915 15.7204 31.8915 15.6352V13.898C31.8915 13.8214 31.9085 13.7617 31.9426 13.7277C31.9682 13.6851 32.0192 13.6689 32.0959 13.6689H33.9864C34.0034 13.6689 34.0205 13.6766 34.0375 13.6851C34.0545 13.703 34.0716 13.7192 34.0801 13.7447C34.0886 13.7788 34.0971 13.8128 34.1056 13.8554C34.1056 13.898 34.1141 13.9499 34.1141 14.0172C34.1141 14.1364 34.0971 14.2301 34.0801 14.2812C34.0545 14.3417 34.029 14.3664 33.9864 14.3664H32.5643V15.218C32.6324 15.2094 32.709 15.2094 32.7772 15.2094C32.8538 15.2009 32.9219 15.2009 33.0071 15.2009C33.22 15.2009 33.4073 15.2273 33.5776 15.2776C33.748 15.3287 33.8842 15.4062 34.0034 15.499C34.1141 15.6012 34.1993 15.7204 34.2589 15.866C34.3185 16.0108 34.3526 16.1802 34.3526 16.3676C34.3526 16.589 34.3185 16.7763 34.2419 16.9467ZM25.147 17.415C25.0107 17.5172 24.8489 17.6032 24.6616 17.6535C24.4742 17.7139 24.2613 17.7386 24.0399 17.7386C23.9037 17.7386 23.7759 17.7301 23.6567 17.7046C23.5375 17.6875 23.4353 17.662 23.3416 17.6364C23.248 17.6109 23.1713 17.5768 23.1117 17.5428C23.0521 17.5172 23.0095 17.4917 22.9925 17.4746C22.9755 17.4576 22.9584 17.4406 22.9499 17.4235C22.9414 17.398 22.9329 17.3724 22.9329 17.3469C22.9244 17.3222 22.9159 17.2881 22.9159 17.2447C22.9073 17.2021 22.9073 17.151 22.9073 17.0914C22.9073 16.9892 22.9159 16.9211 22.9329 16.887C22.9499 16.8445 22.9755 16.8283 23.0095 16.8283C23.0266 16.8283 23.0606 16.8445 23.1117 16.87C23.1628 16.8964 23.2309 16.9305 23.3076 16.9552C23.3842 16.9892 23.4779 17.0233 23.5801 17.0488C23.6908 17.0752 23.81 17.0914 23.9377 17.0914C24.057 17.0914 24.1506 17.0752 24.2358 17.0488C24.3295 17.0233 24.3976 16.9807 24.4572 16.9381C24.5168 16.887 24.5679 16.8283 24.5935 16.7593C24.6275 16.6912 24.6446 16.6154 24.6446 16.5294C24.6446 16.4366 24.619 16.3506 24.5849 16.2824C24.5509 16.2058 24.4998 16.1462 24.4231 16.0866C24.355 16.0355 24.2699 15.9929 24.1592 15.9673C24.0485 15.9418 23.9207 15.9248 23.7759 15.9248H23.4268C23.4013 15.9248 23.3842 15.9248 23.3587 15.9162C23.3416 15.9077 23.3246 15.8907 23.3161 15.8737C23.3076 15.8481 23.2991 15.8141 23.2905 15.7715C23.282 15.7374 23.282 15.6872 23.282 15.619C23.282 15.5586 23.282 15.5075 23.2905 15.4743C23.2991 15.4308 23.3076 15.4062 23.3161 15.3883C23.3246 15.3627 23.3416 15.3457 23.3587 15.3457C23.3757 15.338 23.3927 15.3287 23.4183 15.3287H23.7674C23.8867 15.3287 23.9974 15.3116 24.091 15.2861C24.1847 15.2614 24.2613 15.218 24.321 15.1669C24.3806 15.1158 24.4317 15.0562 24.4657 14.9804C24.4998 14.9122 24.5168 14.8262 24.5168 14.7411C24.5168 14.6729 24.4998 14.6048 24.4828 14.5452C24.4572 14.4864 24.4231 14.4345 24.3806 14.3919C24.338 14.3417 24.2784 14.3076 24.2103 14.2812C24.1421 14.2557 24.057 14.2472 23.9633 14.2472C23.8526 14.2472 23.7504 14.2642 23.6567 14.2897C23.5631 14.3238 23.4779 14.3579 23.4013 14.4004C23.3331 14.4345 23.265 14.4686 23.2139 14.5026C23.1628 14.5367 23.1202 14.5546 23.0947 14.5546C23.0777 14.5546 23.0691 14.5546 23.0521 14.5452C23.0436 14.5367 23.0351 14.5205 23.0266 14.5026C23.018 14.4771 23.0095 14.4515 23.001 14.4098V14.1364C23.001 14.1024 23.0095 14.0683 23.0095 14.0513C23.018 14.0257 23.0266 14.0087 23.0351 13.9917C23.0436 13.9746 23.0606 13.9576 23.0777 13.9321C23.1032 13.9159 23.1458 13.8895 23.2054 13.8478C23.2735 13.8043 23.3502 13.7711 23.4523 13.7371C23.546 13.6936 23.6567 13.6689 23.7845 13.6425C23.9122 13.6085 24.0485 13.5999 24.1932 13.5999C24.3891 13.5999 24.5594 13.6255 24.7127 13.6689C24.8575 13.7107 24.9852 13.7788 25.0874 13.8639C25.1896 13.9499 25.2662 14.0513 25.3173 14.179C25.3684 14.3076 25.394 14.443 25.394 14.5963C25.394 14.724 25.3854 14.8356 25.3514 14.9369C25.3173 15.0485 25.2747 15.1413 25.2151 15.218C25.1555 15.3031 25.0789 15.3721 24.9937 15.4308C24.9 15.4905 24.7978 15.533 24.6786 15.5586V15.5671C24.8234 15.585 24.9426 15.619 25.0618 15.6778C25.1725 15.7289 25.2662 15.7979 25.3429 15.8822C25.4195 15.9673 25.4791 16.061 25.5217 16.1632C25.5558 16.2654 25.5813 16.3761 25.5813 16.4953C25.5813 16.6997 25.5387 16.87 25.4621 17.0233C25.3854 17.1851 25.2832 17.3128 25.147 17.415ZM25.5983 33.1446C25.6324 33.1446 25.6665 33.1693 25.6835 33.2212C25.709 33.2629 25.7261 33.3481 25.7261 33.4682C25.7261 33.5704 25.709 33.6547 25.692 33.7058C25.6665 33.7654 25.6409 33.7909 25.5983 33.7909H25.2492V34.5148C25.2492 34.5326 25.2407 34.5488 25.2236 34.5667C25.2151 34.5829 25.1896 34.5914 25.164 34.6084C25.13 34.6169 25.0959 34.6255 25.0448 34.6255C24.9937 34.6348 24.9256 34.6348 24.8489 34.6348C24.7808 34.6348 24.7127 34.6348 24.6616 34.6255C24.6105 34.6255 24.5764 34.6169 24.5424 34.6084C24.5168 34.5914 24.4913 34.5829 24.4828 34.5667C24.4742 34.5488 24.4657 34.5326 24.4657 34.5148V33.7909H22.9329C22.9073 33.7909 22.8818 33.7833 22.8562 33.7833C22.8392 33.7739 22.8137 33.7569 22.8051 33.7313C22.7881 33.7058 22.7796 33.6632 22.7711 33.6206C22.7626 33.5704 22.7541 33.5022 22.7541 33.4247C22.7541 33.3575 22.7626 33.3055 22.7626 33.2553C22.7626 33.2033 22.7711 33.1607 22.7796 33.1267C22.7881 33.0841 22.7966 33.05 22.8051 33.0083C22.8222 32.9734 22.8392 32.9393 22.8562 32.8976L24.0995 30.7082C24.1081 30.6912 24.1251 30.6741 24.1506 30.6665C24.1762 30.6486 24.2103 30.6401 24.2528 30.6316C24.3039 30.623 24.355 30.6145 24.4231 30.606H24.9426C25.0193 30.6145 25.0703 30.623 25.1214 30.6316C25.164 30.6486 25.1981 30.6571 25.2151 30.6741C25.2321 30.6912 25.2492 30.7082 25.2492 30.7346V33.1446H25.5983ZM14.4426 17.6705C14.4256 17.6705 14.4086 17.662 14.4 17.6535C14.383 17.645 14.366 17.6279 14.3575 17.6032C14.349 17.5768 14.3404 17.5428 14.3319 17.5087C14.3234 17.467 14.3234 17.415 14.3234 17.3563C14.3234 17.2958 14.3234 17.2447 14.3319 17.2106C14.3319 17.1681 14.3404 17.134 14.3575 17.1093C14.366 17.0829 14.3745 17.0659 14.3915 17.0574C14.4086 17.0488 14.4256 17.0412 14.4426 17.0412H15.1835V14.443L14.5448 14.7922C14.4937 14.8177 14.4597 14.8356 14.4256 14.8356C14.4 14.8433 14.3745 14.8356 14.3575 14.8177C14.3404 14.8015 14.3319 14.7675 14.3234 14.724C14.3149 14.6815 14.3149 14.6227 14.3149 14.5452V14.426C14.3149 14.3919 14.3234 14.3664 14.3319 14.3417C14.3404 14.3153 14.349 14.2982 14.366 14.2812C14.383 14.2735 14.4 14.2557 14.4256 14.2386L15.2857 13.6851C15.2942 13.6766 15.3027 13.6689 15.3198 13.6596C15.3368 13.6596 15.3538 13.651 15.3794 13.651C15.4049 13.651 15.439 13.6425 15.4816 13.6425H15.6348C15.7115 13.6425 15.7796 13.6425 15.8222 13.651C15.8733 13.651 15.9073 13.6596 15.9329 13.6596C15.9584 13.6689 15.9755 13.6766 15.984 13.6936C15.9925 13.703 15.9925 13.7192 15.9925 13.7371V17.0412H16.6482C16.6653 17.0412 16.6823 17.0488 16.6993 17.0574C16.7163 17.0659 16.7249 17.0829 16.7419 17.1093C16.7504 17.134 16.7589 17.1681 16.7674 17.2106V17.3563C16.7674 17.415 16.7674 17.467 16.7589 17.5087C16.7589 17.5428 16.7504 17.5768 16.7334 17.6032C16.7249 17.6279 16.7078 17.645 16.6993 17.6535C16.6823 17.662 16.6653 17.6705 16.6482 17.6705H14.4426ZM16.5716 31.1851C16.6227 31.3128 16.6482 31.4491 16.6482 31.5938C16.6482 31.7309 16.6312 31.8578 16.6142 31.9779C16.5886 32.1048 16.5375 32.241 16.4524 32.3858C16.3757 32.5306 16.265 32.6924 16.1288 32.8712C15.984 33.0424 15.7966 33.2459 15.5582 33.4843L15.0898 33.9621H16.6653C16.6908 33.9621 16.7078 33.9621 16.7249 33.9783C16.7419 33.9868 16.7589 34.0123 16.7674 34.0379C16.7845 34.0634 16.793 34.0975 16.8015 34.1409C16.8015 34.1826 16.81 34.2252 16.81 34.2857C16.81 34.3444 16.8015 34.3955 16.8015 34.4381C16.793 34.4807 16.7845 34.5148 16.776 34.5403C16.7674 34.5667 16.7504 34.5914 16.7334 34.6008C16.7163 34.6084 16.6993 34.6169 16.6823 34.6169H14.383C14.3404 34.6169 14.2979 34.6169 14.2638 34.6084C14.2297 34.6008 14.2042 34.5829 14.1872 34.5573C14.1616 34.5326 14.1531 34.4986 14.1446 34.4551C14.1361 34.4041 14.1275 34.3538 14.1275 34.2763C14.1275 34.209 14.1275 34.1486 14.1361 34.1069C14.1446 34.0549 14.1531 34.0123 14.1701 33.9697C14.1872 33.9357 14.2042 33.9016 14.2297 33.8599C14.2638 33.825 14.2893 33.7833 14.3319 33.7398L15.0302 32.9989C15.1665 32.8542 15.2772 32.7264 15.3623 32.6072C15.4475 32.488 15.5071 32.3773 15.5582 32.2836C15.6008 32.1908 15.6348 32.0963 15.6519 32.012C15.6689 31.9345 15.6774 31.8493 15.6774 31.7812C15.6774 31.7131 15.6689 31.6449 15.6519 31.5862C15.6263 31.5257 15.5923 31.4746 15.5497 31.4235C15.5071 31.3809 15.456 31.3469 15.3964 31.3213C15.3283 31.2958 15.2516 31.2788 15.1665 31.2788C15.0473 31.2788 14.9365 31.2958 14.8429 31.3298C14.7492 31.3554 14.6726 31.3895 14.5959 31.432C14.5278 31.4661 14.4682 31.5002 14.4171 31.5342C14.3745 31.5683 14.3319 31.5862 14.3064 31.5862C14.2893 31.5862 14.2723 31.5768 14.2638 31.5683C14.2468 31.5521 14.2382 31.5342 14.2297 31.5002C14.2212 31.4746 14.2127 31.4414 14.2127 31.3895C14.2042 31.3392 14.2042 31.2788 14.2042 31.2106V31.0923C14.2127 31.0573 14.2127 31.0318 14.2212 31.0063C14.2297 30.9816 14.2382 30.9637 14.2468 30.9475C14.2553 30.9296 14.2723 30.9041 14.2979 30.887C14.3234 30.8615 14.3745 30.8274 14.4426 30.7848C14.5108 30.7508 14.5959 30.7167 14.6981 30.6741C14.8003 30.6401 14.911 30.6145 15.0302 30.5898C15.1494 30.5634 15.2772 30.5464 15.4049 30.5464C15.6178 30.5464 15.7966 30.5719 15.9499 30.6316C16.1117 30.6826 16.2395 30.7508 16.3417 30.8444C16.4438 30.9381 16.5205 31.0488 16.5716 31.1851ZM32.9986 12.2715C31.0655 12.2715 29.5071 13.8299 29.5071 15.7638C29.5071 17.3299 30.546 18.6583 31.9681 19.0935V23.2151H25.2832V19.0935C26.7054 18.6498 27.7358 17.3299 27.7358 15.7638C27.7358 13.8299 26.1774 12.2715 24.2528 12.2715C22.3197 12.2715 20.7614 13.8299 20.7614 15.7638C20.7614 17.3299 21.7918 18.6583 23.2139 19.0935V23.2151H16.5375V19.0935C17.9511 18.6583 18.9901 17.3299 18.9901 15.7638C18.9901 13.8299 17.4232 12.2715 15.4986 12.2715C13.574 12.2715 12.0156 13.8299 12.0156 15.7638C12.0156 17.3299 13.046 18.6583 14.4682 19.0935V29.4053C13.046 29.8396 12.0156 31.1766 12.0156 32.735C12.0156 34.668 13.574 36.2264 15.4986 36.2264C17.4232 36.2264 18.9901 34.668 18.9901 32.735C18.9901 31.1766 17.9511 29.8396 16.5375 29.4053V25.2836H23.2139V29.4053C21.7918 29.8396 20.7614 31.1766 20.7614 32.735C20.7614 34.668 22.3197 36.2264 24.2528 36.2264C26.1774 36.2264 27.7358 34.668 27.7358 32.735C27.7358 31.1766 26.7054 29.849 25.2832 29.4053V25.2836H34.0375V19.0935C35.4511 18.6583 36.49 17.3299 36.49 15.7638C36.49 13.8299 34.9231 12.2715 32.9986 12.2715Z" fill="#EDEDED"/>
<path fill-rule="evenodd" clip-rule="evenodd" d="M33.7901 31.7811C33.7561 31.8671 33.705 31.9344 33.6454 31.994C33.5772 32.0536 33.4921 32.0962 33.3899 32.1302C33.2877 32.1643 33.1685 32.1813 33.0322 32.1813H32.5468V30.8529H32.9811C33.0833 30.8529 33.1685 30.8614 33.2281 30.8614C33.2962 30.8699 33.3473 30.8793 33.3984 30.8955C33.5517 30.938 33.6709 31.0155 33.739 31.1169C33.8072 31.2284 33.8412 31.3553 33.8412 31.5086C33.8412 31.6108 33.8242 31.7045 33.7901 31.7811ZM35.0505 34.5828C35.0419 34.5402 35.0164 34.4721 34.9823 34.3784L34.5821 33.4587C34.5395 33.348 34.4884 33.2458 34.4458 33.1607C34.3947 33.0764 34.3437 32.9989 34.2926 32.9316C34.2329 32.8541 34.1819 32.803 34.1137 32.7519C34.0541 32.7008 33.986 32.6667 33.9179 32.6327C34.0626 32.5824 34.1904 32.522 34.3096 32.4453C34.4203 32.3772 34.514 32.2835 34.5906 32.1813C34.6673 32.08 34.7269 31.9684 34.7694 31.8407C34.8035 31.713 34.8291 31.5682 34.8291 31.4149C34.8291 31.2284 34.8035 31.0573 34.7439 30.921C34.6843 30.7762 34.6076 30.6485 34.5055 30.5463C34.3947 30.4441 34.267 30.359 34.1222 30.2908C33.969 30.2227 33.7986 30.1801 33.6113 30.1546C33.5517 30.1461 33.475 30.1375 33.3984 30.1375C33.3132 30.1299 33.2196 30.1299 33.0918 30.1299H31.8826C31.8059 30.1299 31.7378 30.1546 31.6782 30.1972C31.6271 30.2483 31.6016 30.3249 31.6016 30.4271V34.6765C31.6016 34.702 31.6101 34.719 31.6186 34.7361C31.6356 34.7616 31.6612 34.7701 31.6952 34.7872C31.7378 34.7957 31.7804 34.8042 31.8485 34.8136C31.9081 34.8212 31.9848 34.8298 32.0699 34.8298C32.1636 34.8298 32.2488 34.8212 32.3084 34.8136C32.368 34.8042 32.4106 34.7957 32.4531 34.7872C32.4872 34.7701 32.5128 34.7616 32.5298 34.7361C32.5468 34.719 32.5468 34.702 32.5468 34.6765V32.8975H32.8449C32.9471 32.8975 33.0407 32.9052 33.1174 32.9392C33.194 32.9733 33.2621 33.0159 33.3218 33.0764C33.3814 33.1445 33.4325 33.2211 33.475 33.3054C33.5261 33.3991 33.5772 33.5021 33.6283 33.6205L34.0456 34.668C34.0541 34.6935 34.0711 34.719 34.0797 34.7454C34.0967 34.7616 34.1222 34.7795 34.1563 34.7957C34.1904 34.8042 34.2415 34.8136 34.3011 34.8212C34.3607 34.8212 34.4373 34.8298 34.5395 34.8298C34.6587 34.8298 34.7609 34.8212 34.8291 34.8212C34.8972 34.8136 34.9483 34.8042 34.9823 34.7957C35.0249 34.7795 35.0419 34.7616 35.059 34.7454C35.0675 34.7276 35.0675 34.7114 35.0675 34.685C35.0675 34.6594 35.059 34.6254 35.0505 34.5828Z" fill="#EDEDED"/>
</svg>
