<svg width="50" height="50" viewBox="0 0 50 50" fill="none" xmlns="http://www.w3.org/2000/svg">
<path d="M27.1275 39.5644V31.2166H18.7806V22.8687H10.4343V13L1.21974 22.2182C-0.40658 23.841 -0.40658 26.4982 1.21974 28.1211L21.8736 48.7807C23.4955 50.4055 26.1522 50.4074 27.7748 48.7807L27.7836 48.787L37 39.5651H27.1275V39.5644Z" fill="#D16527"/>
<path fill-rule="evenodd" clip-rule="evenodd" d="M27.9111 1.9586e-06H45.8826C48.1507 1.9586e-06 49.9963 1.84552 50 4.11968V22.0882C50 24.3543 48.6936 27.5148 47.0896 29.1169L41.2106 35H31.47V26.7643H23.2353V18.5293H15V8.79401L20.8826 2.91157C22.4867 1.31126 25.6479 -0.00185097 27.9111 1.9586e-06ZM38.1859 11.818C39.3922 13.0224 41.3502 13.0242 42.5565 11.818C43.7591 10.6117 43.756 8.65566 42.5528 7.4494C41.3465 6.24499 39.3922 6.24499 38.1859 7.4494C36.9796 8.65566 36.9796 10.6117 38.1859 11.818Z" fill="#D16527"/>
</svg>
