<svg width="50" height="53" viewBox="0 0 50 53" fill="none" xmlns="http://www.w3.org/2000/svg">
	<path fill-rule="evenodd" clip-rule="evenodd" d="M17.989 16.9198C18.4298 16.9198 18.8798 17.0943 19.2104 17.4458L24.5082 22.9241L26 21.3814L19.1257 14.2727C20.6345 11.1347 20.4649 7.26919 18.3882 4.20132C16.353 1.21233 13.0218 -0.260247 9.74147 0.0377745L14.1246 6.49696C14.7256 7.39191 14.5137 8.61029 13.6576 9.23263L8.92011 12.6774C8.05552 13.2989 6.87646 13.0894 6.27549 12.1944L1.88388 5.72649C0.503078 8.82942 0.706511 12.5714 2.73152 15.5603C5.13965 19.1024 9.37784 20.5136 13.1998 19.3829L20.5666 27L22.0661 25.4573L16.7684 19.979C16.0911 19.2768 16.0911 18.147 16.7684 17.4458C17.0998 17.0943 17.5482 16.9198 17.989 16.9198ZM48.2825 37.3754C45.8849 33.8112 41.6359 32.3339 37.7669 33.3778L30.5482 26L29.024 27.5569L33.8719 32.5099C34.5635 33.2185 34.5635 34.3588 33.8719 35.0674C33.5257 35.4212 33.0756 35.5982 32.616 35.5982C32.1659 35.5982 31.7167 35.4212 31.3696 35.0674L26.5234 30.1047L25 31.6704L31.5946 38.4104C29.9769 41.5773 30.0799 45.5236 32.1927 48.6729C34.2354 51.716 37.6284 53.2278 40.9867 52.9722L36.5716 46.3994C35.9665 45.4962 36.1916 44.2763 37.0736 43.6474L41.9475 40.2247C42.8304 39.6055 44.0335 39.8355 44.6472 40.729L49.0528 47.3017C50.4983 44.1967 50.3261 40.4096 48.2825 37.3754Z" fill="#EDEDED"/>
	<path fill-rule="evenodd" clip-rule="evenodd" d="M23.4928 35.7352C23.1839 36.0883 22.681 36.0883 22.3721 35.7352L17.2323 29.8606C16.9226 29.5066 16.9226 28.9337 17.2323 28.5797L17.5078 28.2648C17.8159 27.9117 18.3188 27.9117 18.6285 28.2648L23.7683 34.1403C24.0772 34.4934 24.0772 35.0682 23.7683 35.4213L23.4928 35.7352Z" fill="#EDEDED"/>
	<path fill-rule="evenodd" clip-rule="evenodd" d="M21 36.5822L9.31104 49.9421L7.86996 51.5866C7.42042 52.0577 6.91066 52.4123 6.35085 52.6435C5.92675 52.831 5.49417 52.9368 5.05396 52.9732C4.90977 52.991 4.76558 52.9999 4.6129 52.9999C3.43391 53.0079 2.25407 52.5377 1.35499 51.5946C-0.451663 49.7021 -0.451663 46.6435 1.35499 44.7599L15.664 31L21 36.5822Z" fill="#EDEDED"/>
	<path fill-rule="evenodd" clip-rule="evenodd" d="M45 8.1179L42.7813 11.7545L40.8159 12.6281L23.1857 31L21 28.7233L38.6378 10.3514L39.4765 8.31292L42.9677 6L43.1532 6.19502L40.5787 8.43646C40.1288 8.90417 40.3322 9.91017 40.782 10.3867C41.2471 10.8632 42.2383 11.1447 42.6966 10.6691L44.806 7.91581L45 8.1179Z" fill="#EDEDED"/>
</svg>