<svg width="58" height="21" viewBox="0 0 58 21" fill="none" xmlns="http://www.w3.org/2000/svg">
<path fill-rule="evenodd" clip-rule="evenodd" d="M46.9994 8.61544V11.8336H33.3605C32.7074 13.6304 30.9965 14.9052 28.9749 14.9052C26.9609 14.9052 25.2501 13.6304 24.5969 11.8336H10.958V8.61544H24.5893C25.0483 7.34658 26.0438 6.34427 27.3032 5.86143V3.60644H26.4712V2.10596H31.4785V3.60644H30.6551V5.86143C31.9137 6.34427 32.91 7.3551 33.3682 8.61544H46.9994Z" fill="#EDEDED"/>
<path fill-rule="evenodd" clip-rule="evenodd" d="M57.1381 2.83747L54.4292 3.79123V1.87944L57.1381 0.926519V2.83747ZM57.1381 5.31727L54.4292 6.27189V4.36435L57.1381 3.41058V5.31727ZM57.1381 7.80303L54.4292 8.7568V6.84841L57.1381 5.89123V7.80303ZM57.1381 10.2828L54.4292 11.2375V9.32906L57.1381 8.37614V10.2828ZM57.1381 12.7677L54.4292 13.7224V11.814L57.1381 10.8594V12.7677ZM57.1381 15.2492L54.4292 16.2064V14.2946L57.1381 13.3409V15.2492ZM57.1381 17.7333L54.4292 18.6871V16.7795L57.1381 15.8249V17.7333ZM57.1381 19.6689H54.4292V19.2636L57.1381 18.3056V19.6689ZM53.2659 19.6689H53.897V0.388321H53.2659V19.6689ZM52.1964 19.6689H52.8223V0.388321H52.1964V19.6689ZM48.951 19.6689V18.3056L51.6607 19.2636V19.6689H48.951ZM48.951 15.8249L51.6607 16.7795V18.6871L48.951 17.7333V15.8249ZM48.951 13.3409L51.6607 14.2946V16.2064L48.951 15.2492V13.3409ZM48.951 10.8594L51.6607 11.814V13.7224L48.951 12.7677V10.8594ZM48.951 8.37614L51.6607 9.32906V11.2375L48.951 10.2828V8.37614ZM48.951 5.89123L51.6607 6.84841V8.7568L48.951 7.80303V5.89123ZM48.951 3.41058L51.6607 4.36435V6.27189L48.951 5.31727V3.41058ZM48.951 0.926519L51.6607 1.87944V3.79123L48.951 2.83747V0.926519ZM48.951 0.353406L49.0549 0.388321H51.6607V1.30632L49.0549 0.388321H48.951V0.353406ZM54.4292 0.388321H57.0342L57.1262 0.356812V0.388321H57.0342L54.4292 1.30632V0.388321ZM57.3774 0.0212895C57.3263 0.00766422 57.2743 0 57.2232 0H57.1262V0.01618C57.0819 0.00766422 57.0342 0 56.9822 0H48.8982C48.5056 0 48.1846 0.321046 48.1846 0.717031V19.4203C48.1846 19.8171 48.5056 20.1339 48.8982 20.1339H57.2232C57.2743 20.1339 57.3263 20.1297 57.3774 20.1177C57.695 20.0453 57.936 19.7643 57.936 19.4203V0.717031C57.936 0.372992 57.695 0.0885643 57.3774 0.0212895Z" fill="#EDEDED"/>
<path fill-rule="evenodd" clip-rule="evenodd" d="M8.95266 2.83747L6.24379 3.79123V1.87944L8.95266 0.926519V2.83747ZM8.95266 5.31727L6.24379 6.27189V4.36435L8.95266 3.41058V5.31727ZM8.95266 7.80303L6.24379 8.7568V6.84841L8.95266 5.89123V7.80303ZM8.95266 10.2828L6.24379 11.2375V9.32906L8.95266 8.37614V10.2828ZM8.95266 12.7677L6.24379 13.7224V11.814L8.95266 10.8594V12.7677ZM8.95266 15.2492L6.24379 16.2064V14.2946L8.95266 13.3409V15.2492ZM8.95266 17.7333L6.24379 18.6871V16.7795L8.95266 15.8249V17.7333ZM8.95266 19.6689H6.24379V19.2636L8.95266 18.3056V19.6689ZM5.08053 19.6689H5.7107V0.388321H5.08053V19.6689ZM4.01094 19.6689H4.636V0.388321H4.01094V19.6689ZM0.764719 19.6689V18.3056L3.47445 19.2636V19.6689H0.764719ZM0.764719 15.8249L3.47445 16.7795V18.6871L0.764719 17.7333V15.8249ZM0.764719 13.3409L3.47445 14.2946V16.2064L0.764719 15.2492V13.3409ZM0.764719 10.8594L3.47445 11.814V13.7224L0.764719 12.7677V10.8594ZM0.764719 8.37614L3.47445 9.32906V11.2375L0.764719 10.2828V8.37614ZM0.764719 5.89123L3.47445 6.84841V8.7568L0.764719 7.80303V5.89123ZM0.764719 3.41058L3.47445 4.36435V6.27189L0.764719 5.31727V3.41058ZM0.764719 0.926519L3.47445 1.87944V3.79123L0.764719 2.83747V0.926519ZM0.764719 0.353406L0.869463 0.388321H3.47445V1.30632L0.869463 0.388321H0.764719V0.353406ZM6.24379 0.388321H8.84792L8.93989 0.356812V0.388321H8.84792L6.24379 1.30632V0.388321ZM9.19196 0.0212895C9.14086 0.00766422 9.08806 0 9.03697 0H8.93989V0.01618C8.89646 0.00766422 8.84792 0 8.79682 0H0.712773C0.320194 0 0 0.321046 0 0.717031V19.4203C0 19.8171 0.320194 20.1339 0.712773 20.1339H9.03697C9.08806 20.1339 9.14086 20.1297 9.19196 20.1177C9.50874 20.0453 9.74974 19.7643 9.74974 19.4203V0.717031C9.74974 0.372992 9.50874 0.0885643 9.19196 0.0212895Z" fill="#EDEDED"/>
</svg>
