<svg width="55" height="45" viewBox="0 0 55 45" fill="none" xmlns="http://www.w3.org/2000/svg">
	<path fill-rule="evenodd" clip-rule="evenodd" d="M18.745 18.5304C18.745 18.7774 18.5492 18.9733 18.3022 18.9733C18.0638 18.9733 17.8594 18.7774 17.8594 18.5304C17.8594 18.2826 18.0638 18.0791 18.3022 18.0791C18.5492 18.0791 18.745 18.2826 18.745 18.5304Z" fill="#EDEDED"/>
	<path fill-rule="evenodd" clip-rule="evenodd" d="M33.6306 22.9842C32.9161 22.9842 32.3362 23.5633 32.3362 24.2786C32.3362 24.9931 32.9161 25.573 33.6306 25.573C34.3459 25.573 34.925 24.9931 34.925 24.2786C34.925 23.5633 34.3459 22.9842 33.6306 22.9842ZM30.1485 30.8699C27.7888 29.6181 26.1793 27.1314 26.1793 24.2786C26.1793 21.8942 27.3034 19.7652 29.0576 18.4026L23.1987 17.1159C23.3358 17.5681 23.404 18.0356 23.404 18.5304C23.404 21.3398 21.1209 23.6314 18.3021 23.6314C18.0211 23.6314 17.7401 23.605 17.477 23.5633L19.1367 29.0901C19.8691 28.528 20.7811 28.1866 21.7766 28.1866C24.161 28.1866 26.0941 30.129 26.0941 32.5126V32.522L30.1485 30.8699ZM21.7766 32.2921C21.6489 32.2921 21.5552 32.3857 21.5552 32.5126C21.5552 32.6327 21.6574 32.7349 21.7766 32.7349C21.8958 32.7349 21.9895 32.6327 21.9895 32.5126C21.9895 32.3857 21.8958 32.2921 21.7766 32.2921ZM33.6306 22.9842C32.9161 22.9842 32.3362 23.5633 32.3362 24.2786C32.3362 24.9931 32.9161 25.573 33.6306 25.573C34.3459 25.573 34.925 24.9931 34.925 24.2786C34.925 23.5633 34.3459 22.9842 33.6306 22.9842ZM33.6306 22.9842C32.9161 22.9842 32.3362 23.5633 32.3362 24.2786C32.3362 24.9931 32.9161 25.573 33.6306 25.573C34.3459 25.573 34.925 24.9931 34.925 24.2786C34.925 23.5633 34.3459 22.9842 33.6306 22.9842ZM30.1485 30.8699C27.7888 29.6181 26.1793 27.1314 26.1793 24.2786C26.1793 21.8942 27.3034 19.7652 29.0576 18.4026L23.1987 17.1159C23.3358 17.5681 23.404 18.0356 23.404 18.5304C23.404 21.3398 21.1209 23.6314 18.3021 23.6314C18.0211 23.6314 17.7401 23.605 17.477 23.5633L19.1367 29.0901C19.8691 28.528 20.7811 28.1866 21.7766 28.1866C24.161 28.1866 26.0941 30.129 26.0941 32.5126V32.522L30.1485 30.8699ZM33.6306 22.9842C32.9161 22.9842 32.3362 23.5633 32.3362 24.2786C32.3362 24.9931 32.9161 25.573 33.6306 25.573C34.3459 25.573 34.925 24.9931 34.925 24.2786C34.925 23.5633 34.3459 22.9842 33.6306 22.9842ZM33.6306 22.9842C32.9161 22.9842 32.3362 23.5633 32.3362 24.2786C32.3362 24.9931 32.9161 25.573 33.6306 25.573C34.3459 25.573 34.925 24.9931 34.925 24.2786C34.925 23.5633 34.3459 22.9842 33.6306 22.9842ZM30.1485 30.8699C27.7888 29.6181 26.1793 27.1314 26.1793 24.2786C26.1793 21.8942 27.3034 19.7652 29.0576 18.4026L23.1987 17.1159C23.3358 17.5681 23.404 18.0356 23.404 18.5304C23.404 21.3398 21.1209 23.6314 18.3021 23.6314C18.0211 23.6314 17.7401 23.605 17.477 23.5633L19.1367 29.0901C19.8691 28.528 20.7811 28.1866 21.7766 28.1866C24.161 28.1866 26.0941 30.129 26.0941 32.5126V32.522L30.1485 30.8699ZM21.7766 32.2921C21.6489 32.2921 21.5552 32.3857 21.5552 32.5126C21.5552 32.6327 21.6574 32.7349 21.7766 32.7349C21.8958 32.7349 21.9895 32.6327 21.9895 32.5126C21.9895 32.3857 21.8958 32.2921 21.7766 32.2921ZM30.1485 30.8699C27.7888 29.6181 26.1793 27.1314 26.1793 24.2786C26.1793 21.8942 27.3034 19.7652 29.0576 18.4026L23.1987 17.1159C23.3358 17.5681 23.404 18.0356 23.404 18.5304C23.404 21.3398 21.1209 23.6314 18.3021 23.6314C18.0211 23.6314 17.7401 23.605 17.477 23.5633L19.1367 29.0901C19.8691 28.528 20.7811 28.1866 21.7766 28.1866C24.161 28.1866 26.0941 30.129 26.0941 32.5126V32.522L30.1485 30.8699ZM33.6306 22.9842C32.9161 22.9842 32.3362 23.5633 32.3362 24.2786C32.3362 24.9931 32.9161 25.573 33.6306 25.573C34.3459 25.573 34.925 24.9931 34.925 24.2786C34.925 23.5633 34.3459 22.9842 33.6306 22.9842ZM33.6306 22.9842C32.9161 22.9842 32.3362 23.5633 32.3362 24.2786C32.3362 24.9931 32.9161 25.573 33.6306 25.573C34.3459 25.573 34.925 24.9931 34.925 24.2786C34.925 23.5633 34.3459 22.9842 33.6306 22.9842ZM30.1485 30.8699C27.7888 29.6181 26.1793 27.1314 26.1793 24.2786C26.1793 21.8942 27.3034 19.7652 29.0576 18.4026L23.1987 17.1159C23.3358 17.5681 23.404 18.0356 23.404 18.5304C23.404 21.3398 21.1209 23.6314 18.3021 23.6314C18.0211 23.6314 17.7401 23.605 17.477 23.5633L19.1367 29.0901C19.8691 28.528 20.7811 28.1866 21.7766 28.1866C24.161 28.1866 26.0941 30.129 26.0941 32.5126V32.522L30.1485 30.8699ZM21.7766 32.2921C21.6489 32.2921 21.5552 32.3857 21.5552 32.5126C21.5552 32.6327 21.6574 32.7349 21.7766 32.7349C21.8958 32.7349 21.9895 32.6327 21.9895 32.5126C21.9895 32.3857 21.8958 32.2921 21.7766 32.2921ZM21.7766 32.2921C21.6489 32.2921 21.5552 32.3857 21.5552 32.5126C21.5552 32.6327 21.6574 32.7349 21.7766 32.7349C21.8958 32.7349 21.9895 32.6327 21.9895 32.5126C21.9895 32.3857 21.8958 32.2921 21.7766 32.2921ZM30.1485 30.8699C27.7888 29.6181 26.1793 27.1314 26.1793 24.2786C26.1793 21.8942 27.3034 19.7652 29.0576 18.4026L23.1987 17.1159C23.3358 17.5681 23.404 18.0356 23.404 18.5304C23.404 21.3398 21.1209 23.6314 18.3021 23.6314C18.0211 23.6314 17.7401 23.605 17.477 23.5633L19.1367 29.0901C19.8691 28.528 20.7811 28.1866 21.7766 28.1866C24.161 28.1866 26.0941 30.129 26.0941 32.5126V32.522L30.1485 30.8699ZM33.6306 22.9842C32.9161 22.9842 32.3362 23.5633 32.3362 24.2786C32.3362 24.9931 32.9161 25.573 33.6306 25.573C34.3459 25.573 34.925 24.9931 34.925 24.2786C34.925 23.5633 34.3459 22.9842 33.6306 22.9842ZM21.5552 32.5126C21.5552 32.6327 21.6574 32.7349 21.7766 32.7349C21.8958 32.7349 21.9895 32.6327 21.9895 32.5126C21.9895 32.3857 21.8958 32.2921 21.7766 32.2921C21.6489 32.2921 21.5552 32.3857 21.5552 32.5126ZM18.3021 23.6314C18.0211 23.6314 17.7401 23.605 17.477 23.5633L19.1367 29.0901C19.8691 28.528 20.7811 28.1866 21.7766 28.1866C24.161 28.1866 26.0941 30.129 26.0941 32.5126V32.522L30.1485 30.8699C27.7888 29.6181 26.1793 27.1314 26.1793 24.2786C26.1793 21.8942 27.3034 19.7652 29.0576 18.4026L23.1987 17.1159C23.3358 17.5681 23.404 18.0356 23.404 18.5304C23.404 21.3398 21.1209 23.6314 18.3021 23.6314ZM34.925 24.2786C34.925 23.5633 34.3459 22.9842 33.6306 22.9842C32.9161 22.9842 32.3362 23.5633 32.3362 24.2786C32.3362 24.9931 32.9161 25.573 33.6306 25.573C34.3459 25.573 34.925 24.9931 34.925 24.2786ZM32.8727 9.89527L32.1667 9.41753L32.234 9.32471H22.3301L22.3983 9.41753L21.5041 10.0315L15.9186 13.8977L15.9773 13.9829C16.6756 13.6252 17.4591 13.4209 18.3021 13.4209C19.0856 13.4209 19.835 13.5988 20.4907 13.9148L33.8699 16.8349C37.8715 16.9549 41.0819 20.2412 41.0819 24.2786C41.0819 27.4295 39.1241 30.129 36.3565 31.2276L36.1938 31.2872L33.026 32.4709L24.3143 36.005C23.6075 36.533 22.7219 36.8396 21.7766 36.8396C19.393 36.8396 17.4506 34.8979 17.4506 32.5126C17.4506 32.4624 17.4506 32.4198 17.4591 32.3687L14.2154 21.5791C13.5674 20.7275 13.1927 19.6707 13.1927 18.5304C13.1927 17.1082 13.7717 15.8223 14.717 14.9026L14.6412 14.7919L8.84961 18.8029L18.7961 44.2399H35.7681L45.7145 18.8114V18.8029L32.8727 9.89527ZM33.6306 22.9842C32.9161 22.9842 32.3362 23.5633 32.3362 24.2786C32.3362 24.9931 32.9161 25.573 33.6306 25.573C34.3459 25.573 34.925 24.9931 34.925 24.2786C34.925 23.5633 34.3459 22.9842 33.6306 22.9842ZM30.1485 30.8699C27.7888 29.6181 26.1793 27.1314 26.1793 24.2786C26.1793 21.8942 27.3034 19.7652 29.0576 18.4026L23.1987 17.1159C23.3358 17.5681 23.404 18.0356 23.404 18.5304C23.404 21.3398 21.1209 23.6314 18.3021 23.6314C18.0211 23.6314 17.7401 23.605 17.477 23.5633L19.1367 29.0901C19.8691 28.528 20.7811 28.1866 21.7766 28.1866C24.161 28.1866 26.0941 30.129 26.0941 32.5126V32.522L30.1485 30.8699ZM21.7766 32.2921C21.6489 32.2921 21.5552 32.3857 21.5552 32.5126C21.5552 32.6327 21.6574 32.7349 21.7766 32.7349C21.8958 32.7349 21.9895 32.6327 21.9895 32.5126C21.9895 32.3857 21.8958 32.2921 21.7766 32.2921ZM21.7766 32.2921C21.6489 32.2921 21.5552 32.3857 21.5552 32.5126C21.5552 32.6327 21.6574 32.7349 21.7766 32.7349C21.8958 32.7349 21.9895 32.6327 21.9895 32.5126C21.9895 32.3857 21.8958 32.2921 21.7766 32.2921ZM30.1485 30.8699C27.7888 29.6181 26.1793 27.1314 26.1793 24.2786C26.1793 21.8942 27.3034 19.7652 29.0576 18.4026L23.1987 17.1159C23.3358 17.5681 23.404 18.0356 23.404 18.5304C23.404 21.3398 21.1209 23.6314 18.3021 23.6314C18.0211 23.6314 17.7401 23.605 17.477 23.5633L19.1367 29.0901C19.8691 28.528 20.7811 28.1866 21.7766 28.1866C24.161 28.1866 26.0941 30.129 26.0941 32.5126V32.522L30.1485 30.8699ZM33.6306 22.9842C32.9161 22.9842 32.3362 23.5633 32.3362 24.2786C32.3362 24.9931 32.9161 25.573 33.6306 25.573C34.3459 25.573 34.925 24.9931 34.925 24.2786C34.925 23.5633 34.3459 22.9842 33.6306 22.9842ZM33.6306 22.9842C32.9161 22.9842 32.3362 23.5633 32.3362 24.2786C32.3362 24.9931 32.9161 25.573 33.6306 25.573C34.3459 25.573 34.925 24.9931 34.925 24.2786C34.925 23.5633 34.3459 22.9842 33.6306 22.9842ZM30.1485 30.8699C27.7888 29.6181 26.1793 27.1314 26.1793 24.2786C26.1793 21.8942 27.3034 19.7652 29.0576 18.4026L23.1987 17.1159C23.3358 17.5681 23.404 18.0356 23.404 18.5304C23.404 21.3398 21.1209 23.6314 18.3021 23.6314C18.0211 23.6314 17.7401 23.605 17.477 23.5633L19.1367 29.0901C19.8691 28.528 20.7811 28.1866 21.7766 28.1866C24.161 28.1866 26.0941 30.129 26.0941 32.5126V32.522L30.1485 30.8699ZM21.7766 32.2921C21.6489 32.2921 21.5552 32.3857 21.5552 32.5126C21.5552 32.6327 21.6574 32.7349 21.7766 32.7349C21.8958 32.7349 21.9895 32.6327 21.9895 32.5126C21.9895 32.3857 21.8958 32.2921 21.7766 32.2921ZM21.7766 32.2921C21.6489 32.2921 21.5552 32.3857 21.5552 32.5126C21.5552 32.6327 21.6574 32.7349 21.7766 32.7349C21.8958 32.7349 21.9895 32.6327 21.9895 32.5126C21.9895 32.3857 21.8958 32.2921 21.7766 32.2921ZM30.1485 30.8699C27.7888 29.6181 26.1793 27.1314 26.1793 24.2786C26.1793 21.8942 27.3034 19.7652 29.0576 18.4026L23.1987 17.1159C23.3358 17.5681 23.404 18.0356 23.404 18.5304C23.404 21.3398 21.1209 23.6314 18.3021 23.6314C18.0211 23.6314 17.7401 23.605 17.477 23.5633L19.1367 29.0901C19.8691 28.528 20.7811 28.1866 21.7766 28.1866C24.161 28.1866 26.0941 30.129 26.0941 32.5126V32.522L30.1485 30.8699ZM33.6306 22.9842C32.9161 22.9842 32.3362 23.5633 32.3362 24.2786C32.3362 24.9931 32.9161 25.573 33.6306 25.573C34.3459 25.573 34.925 24.9931 34.925 24.2786C34.925 23.5633 34.3459 22.9842 33.6306 22.9842ZM33.6306 22.9842C32.9161 22.9842 32.3362 23.5633 32.3362 24.2786C32.3362 24.9931 32.9161 25.573 33.6306 25.573C34.3459 25.573 34.925 24.9931 34.925 24.2786C34.925 23.5633 34.3459 22.9842 33.6306 22.9842ZM21.7766 32.2921C21.6489 32.2921 21.5552 32.3857 21.5552 32.5126C21.5552 32.6327 21.6574 32.7349 21.7766 32.7349C21.8958 32.7349 21.9895 32.6327 21.9895 32.5126C21.9895 32.3857 21.8958 32.2921 21.7766 32.2921ZM30.1485 30.8699C27.7888 29.6181 26.1793 27.1314 26.1793 24.2786C26.1793 21.8942 27.3034 19.7652 29.0576 18.4026L23.1987 17.1159C23.3358 17.5681 23.404 18.0356 23.404 18.5304C23.404 21.3398 21.1209 23.6314 18.3021 23.6314C18.0211 23.6314 17.7401 23.605 17.477 23.5633L19.1367 29.0901C19.8691 28.528 20.7811 28.1866 21.7766 28.1866C24.161 28.1866 26.0941 30.129 26.0941 32.5126V32.522L30.1485 30.8699ZM33.6306 22.9842C32.9161 22.9842 32.3362 23.5633 32.3362 24.2786C32.3362 24.9931 32.9161 25.573 33.6306 25.573C34.3459 25.573 34.925 24.9931 34.925 24.2786C34.925 23.5633 34.3459 22.9842 33.6306 22.9842ZM33.6306 22.9842C32.9161 22.9842 32.3362 23.5633 32.3362 24.2786C32.3362 24.9931 32.9161 25.573 33.6306 25.573C34.3459 25.573 34.925 24.9931 34.925 24.2786C34.925 23.5633 34.3459 22.9842 33.6306 22.9842Z" fill="#EDEDED"/>
	<path fill-rule="evenodd" clip-rule="evenodd" d="M32.7028 31.6792L25.5742 34.5737C25.7531 34.2424 25.8902 33.8848 25.9745 33.5016V33.493L31.2543 31.3462C31.7141 31.5088 32.1995 31.6196 32.7028 31.6792Z" fill="#EDEDED"/>
	<path fill-rule="evenodd" clip-rule="evenodd" d="M31.3994 17.1679C30.931 17.3127 30.4882 17.5077 30.0624 17.747H30.0539L22.824 16.163C22.6281 15.7883 22.3897 15.4468 22.1172 15.1411L31.3994 17.1679Z" fill="#EDEDED"/>
	<path fill-rule="evenodd" clip-rule="evenodd" d="M18.4452 29.7547C18.2068 30.0443 18.0024 30.3679 17.8491 30.7077L15.457 22.7632C15.7798 22.9846 16.1298 23.1719 16.5036 23.2997L18.4452 29.7547Z" fill="#EDEDED"/>
	<path fill-rule="evenodd" clip-rule="evenodd" d="M33.6329 26.425C32.4501 26.425 31.487 25.4627 31.487 24.279C31.487 23.0953 32.4501 22.133 33.6329 22.133C34.8166 22.133 35.7789 23.0953 35.7789 24.279C35.7789 25.4627 34.8166 26.425 33.6329 26.425ZM33.6329 17.6792C29.9882 17.6792 27.0332 20.6342 27.0332 24.279C27.0332 27.9238 29.9882 30.8865 33.6329 30.8865C37.2786 30.8865 40.2327 27.9238 40.2327 24.279C40.2327 20.6342 37.2786 17.6792 33.6329 17.6792Z" fill="#EDEDED"/>
	<path fill-rule="evenodd" clip-rule="evenodd" d="M18.3048 19.8248C17.5903 19.8248 17.0104 19.2449 17.0104 18.5304C17.0104 17.8151 17.5903 17.2275 18.3048 17.2275C19.0201 17.2275 19.5992 17.8151 19.5992 18.5304C19.5992 19.2449 19.0201 19.8248 18.3048 19.8248ZM18.3048 14.2725C15.9553 14.2725 14.0469 16.18 14.0469 18.5304C14.0469 20.8799 15.9553 22.7798 18.3048 22.7798C20.6551 22.7798 22.555 20.8799 22.555 18.5304C22.555 16.18 20.6551 14.2725 18.3048 14.2725Z" fill="#EDEDED"/>
	<path fill-rule="evenodd" clip-rule="evenodd" d="M21.7791 33.5869C21.183 33.5869 20.707 33.1015 20.707 32.5131C20.707 31.9178 21.183 31.4409 21.7791 31.4409C22.3667 31.4409 22.8436 31.9178 22.8436 32.5131C22.8436 33.1015 22.3667 33.5869 21.7791 33.5869ZM21.7791 29.0386C19.8554 29.0386 18.3047 30.597 18.3047 32.5131C18.3047 34.4291 19.8554 35.9884 21.7791 35.9884C23.6952 35.9884 25.2451 34.4291 25.2451 32.5131C25.2451 30.597 23.6952 29.0386 21.7791 29.0386Z" fill="#EDEDED"/>
	<path fill-rule="evenodd" clip-rule="evenodd" d="M37.1554 5.60346H37.812V0.570565H37.1554V5.60346ZM35.9547 5.60346H36.6104V0.570565H35.9547V5.60346ZM34.7625 5.60346H35.4182V0.570565H34.7625V5.60346ZM33.5618 5.60346H34.2175V0.570565H33.5618V5.60346ZM32.361 5.60346H33.0176V0.570565H32.361V5.60346ZM31.1603 5.60346H31.8245V0.570565H31.1603V5.60346ZM29.9689 5.60346H30.6238V0.570565H29.9689V5.60346ZM28.7674 5.60346H29.4231V0.570565H28.7674V5.60346ZM27.5666 5.60346H28.2224V0.570565H27.5666V5.60346ZM26.3659 5.60346H27.0301V0.570565H26.3659V5.60346ZM25.1737 5.60346H25.8294V0.570565H25.1737V5.60346ZM23.9738 5.60346H24.6287V0.570565H23.9738V5.60346ZM22.7722 5.60346H23.428V0.570565H22.7722V5.60346ZM21.58 5.60346H22.2366V0.570565H21.58V5.60346ZM20.3793 5.60346H21.035V0.570565H20.3793V5.60346ZM19.1794 5.60346H19.8343V0.570565H19.1794V5.60346ZM17.9787 5.60346H18.6421V0.570565H17.9787V5.60346ZM16.7856 5.60346H17.4422V0.570565H16.7856V5.60346ZM16.2832 6.1059H38.2795V0H16.2832V6.1059Z" fill="#EDEDED"/>
	<path fill-rule="evenodd" clip-rule="evenodd" d="M21.6309 8.4102H32.9356V6.77686H21.6309V8.4102Z" fill="#EDEDED"/>
	<path fill-rule="evenodd" clip-rule="evenodd" d="M21.2137 9.19707L21.0272 9.3248L3.40718 21.5528L2.77701 21.9879L0.605478 18.8371C-0.467513 17.2786 -0.0757862 15.1582 1.47494 14.0937L14.3415 5.22781C14.6821 4.99022 15.0568 4.82841 15.4315 4.73389V6.95739H19.6724L21.2137 9.19707Z" fill="#EDEDED"/>
	<path fill-rule="evenodd" clip-rule="evenodd" d="M11.7438 28.5369H8.04024C7.03453 28.5369 6.65983 27.4213 6.65983 27.4213L3.81641 22.2939L8.12455 19.3057L11.7438 28.5369Z" fill="#EDEDED"/>
	<path fill-rule="evenodd" clip-rule="evenodd" d="M53.9587 18.8371L51.7863 21.9879L51.1562 21.5528L46.0296 17.994L33.537 9.3248L33.3496 9.19707L34.891 6.95739H39.1318V4.73389C39.5065 4.82841 39.8812 4.99022 40.2227 5.22781L53.0892 14.0937C54.6391 15.1582 55.0308 17.2786 53.9587 18.8371Z" fill="#EDEDED"/>
	<path fill-rule="evenodd" clip-rule="evenodd" d="M50.7381 22.3029L47.9023 27.421C47.9023 27.421 47.5276 28.5366 46.5227 28.5366H42.8184L46.4299 19.313L50.7381 22.3029Z" fill="#EDEDED"/>
</svg>