<svg width="62" height="53" viewBox="0 0 62 53" fill="none" xmlns="http://www.w3.org/2000/svg">
<path fill-rule="evenodd" clip-rule="evenodd" d="M13.6287 7.86252C13.4712 8.14695 13.3647 8.3624 13.3247 8.47651C13.214 8.81544 13.1697 8.98405 13.134 9.07772C12.939 9.03003 12.7226 8.94573 12.5481 9.00193C12.3752 9.07006 12.3445 9.23782 12.1419 9.29062C11.9009 9.33916 11.5466 9.20631 11.3099 9.1731C10.8023 9.08879 10.2743 9.01982 9.76678 8.9023C8.95011 8.7158 8.66568 7.95449 8.71422 7.19062C8.76702 6.47785 9.49427 6.24196 10.0691 6.15595C10.6439 6.05291 11.4265 5.79658 11.9681 6.12189C12.7559 6.60559 12.445 8.07967 13.6287 7.86252Z" fill="#EDEDED"/>
<path fill-rule="evenodd" clip-rule="evenodd" d="M49.1751 25.1557C48.2052 25.1557 47.277 25.1897 46.3308 25.2068C45.9391 25.2153 45.5559 25.2153 45.1642 25.2153C44.3466 25.2153 42.6264 25.2834 41.8864 25.0109C40.6686 24.6022 40.3527 22.9927 40.0206 21.843C40.1066 21.8175 40.1909 21.8005 40.2846 21.7834C40.4038 21.7664 40.5409 21.7408 40.6771 21.7153C40.7614 21.7068 40.8551 21.6897 40.9488 21.6727C40.9829 21.6727 41.0084 21.6727 41.0425 21.6642C41.1617 21.6472 41.2979 21.6301 41.4257 21.6131H41.4606C41.5875 21.5961 41.7237 21.579 41.86 21.562C42.1921 21.5279 42.5413 21.4939 42.9074 21.4683C43.0105 21.4683 43.1118 21.4598 43.214 21.4513C43.7676 21.4087 44.339 21.3747 44.9002 21.3576C45.0449 21.3491 45.1906 21.3406 45.3353 21.3321H45.6504C45.7782 21.3236 45.8965 21.3236 46.0243 21.3151H46.3223C47.7794 21.2895 48.9622 21.3491 49.3029 21.4683C50.2141 21.809 50.0531 22.6435 50.3256 23.5292C50.5973 24.7469 50.3938 25.1557 49.1751 25.1557ZM38.658 23.4696C38.2237 24.6873 36.529 24.5255 36.3587 24.5255L24.6238 24.534C24.462 24.534 22.7588 24.7043 22.3245 23.4866C21.874 22.2603 21.2004 20.2932 20.962 19.3138C20.7074 18.2834 19.872 16.5121 24.8623 16.6228C27.4341 16.6739 29.2905 16.6739 30.4828 16.6569C31.6835 16.6739 33.54 16.6739 36.1118 16.6143C41.0944 16.4951 40.2675 18.2664 40.0129 19.2968C39.7736 20.2761 39.1008 22.2518 38.658 23.4696ZM19.1064 25.0279C18.3561 25.3004 16.6359 25.2408 15.8184 25.2408C15.5203 25.2408 15.2223 25.2408 14.9327 25.2323C14.2174 25.2238 13.5029 25.2068 12.7791 25.1983C12.4546 25.1897 12.1404 25.1897 11.8074 25.1897C10.5905 25.1897 10.3853 24.781 10.6586 23.5632C10.9303 22.6776 10.76 21.843 11.6712 21.5024C12.0041 21.3832 13.1103 21.3321 14.4822 21.3406C14.627 21.3406 14.7803 21.3406 14.9327 21.3491C15.3849 21.3576 15.861 21.3661 16.3464 21.3917C16.6359 21.4002 16.9255 21.4172 17.215 21.4343C17.3266 21.4343 17.4279 21.4428 17.5301 21.4513C17.6927 21.4598 17.8452 21.4769 17.9985 21.4854C18.1526 21.4939 18.305 21.5109 18.4592 21.5194C18.6125 21.5365 18.7572 21.5535 18.9011 21.562C19.1226 21.579 19.3355 21.6046 19.5398 21.6301C19.6769 21.6472 19.8132 21.6642 19.9316 21.6812C20.0423 21.6983 20.1445 21.7153 20.2475 21.7238C20.2978 21.7323 20.3488 21.7408 20.3914 21.7494C20.4604 21.7579 20.52 21.7749 20.5788 21.7834C20.6043 21.7919 20.6299 21.7919 20.6469 21.7919C20.6895 21.8005 20.7329 21.809 20.7746 21.8175C20.8428 21.8345 20.9024 21.843 20.962 21.8601C20.6214 23.0097 20.3233 24.6192 19.1064 25.0279ZM11.1091 13.6423C11.2624 12.9355 11.4157 13.0377 12.1736 13.0292C13.3403 13.0292 14.4652 13.1399 15.6319 13.3443C17.1639 13.5912 18.9437 13.5401 20.4604 13.9915C18.6968 17.1508 16.756 16.5973 14.5155 16.5973C13.2977 16.5973 11.4157 16.5973 11.1091 15.1241C11.0078 14.7153 11.0078 14.1022 11.1091 13.6423ZM18.0334 1.79683L30.4828 1.36253L42.9074 1.77129C42.9074 1.77129 47.3953 8.75424 47.0555 8.75424C46.7311 8.75424 35.5157 8.12407 30.4742 8.23478C25.4414 8.13259 14.2174 8.77979 13.9023 8.77979C13.5625 8.77979 18.0334 1.79683 18.0334 1.79683ZM48.7834 13.0036C49.5507 13.0036 49.7031 12.9014 49.8564 13.6083C49.9586 14.0681 49.9586 14.6812 49.8564 15.09C49.5507 16.5632 47.6772 16.5632 46.4501 16.5632C44.2104 16.5718 42.2688 17.1253 40.5068 13.9744C42.0226 13.5231 43.8101 13.5657 45.3353 13.3187C46.4935 13.1058 47.6167 13.0036 48.7834 13.0036ZM52.1131 13.5316C52.0705 12.8163 50.41 11.2834 49.9331 10.8151C49.6188 10.5085 48.5109 9.56325 48.1447 9.3248C47.9242 9.18855 47.8807 9.18855 47.8211 9.0523C47.7871 8.95011 47.7453 8.77979 47.6346 8.44768C47.5912 8.32845 47.4898 8.11556 47.3272 7.83454C46.3734 6.10583 43.5896 1.80535 43.3588 1.56691C43.0778 1.2944 42.4731 0.749391 41.6054 0.596106C40.7453 0.451338 32.1008 0 30.4742 0C28.8392 0 20.1956 0.468369 19.3355 0.621654C18.4677 0.774938 17.8622 1.31143 17.5897 1.58394C17.3598 1.82238 14.5751 6.13138 13.6307 7.86009C13.4689 8.14962 13.3658 8.36252 13.3232 8.47322C13.2134 8.81386 13.1699 8.98417 13.1367 9.07784C13.0933 9.17152 12.8719 9.3248 12.7876 9.36738C12.7697 9.38441 12.762 9.39293 12.762 9.39293C12.5227 9.55473 11.5528 10.2104 11.0325 10.764C10.2413 11.5985 8.88731 12.8503 8.85239 13.5657C8.81918 14.281 8.51176 14.7834 8.5884 16.2141C8.61395 16.9039 8.81066 18.9988 8.99801 20.9915C9.18451 23.0863 9.38974 25.0705 9.40592 25.2238C9.43999 25.5304 9.3378 25.871 9.47405 26.135C9.61031 26.4075 9.95179 26.4841 10.4883 26.4756C10.6586 26.4756 12.4546 26.5012 14.9327 26.5352C20.8257 26.6034 30.4913 26.7311 30.4913 26.7311C30.4913 26.7311 40.4642 26.5863 46.3308 26.5012C48.6557 26.4671 50.3418 26.4416 50.4951 26.4416C51.0325 26.4416 51.3722 26.3734 51.517 26.1009C51.6448 25.8369 51.5434 25.4963 51.5775 25.1897C51.603 24.9768 51.9522 21.3917 52.1821 18.7518C52.2834 17.5851 52.3609 16.6058 52.3865 16.1715C52.4546 14.7494 52.148 14.2384 52.1131 13.5316Z" fill="#EDEDED"/>
<path fill-rule="evenodd" clip-rule="evenodd" d="M14.9329 27.3868V29.7286C14.9329 29.95 14.7541 30.1374 14.5335 30.1374L9.41462 30.1459C9.18469 30.1459 9.00586 29.9585 9.00586 29.7371V26.9014C9.44954 27.3101 10.0967 27.3272 10.4544 27.3272C10.4621 27.3272 14.9253 27.3868 14.9253 27.3868H14.9329Z" fill="#EDEDED"/>
<path fill-rule="evenodd" clip-rule="evenodd" d="M52.2676 26.501V29.6944C52.2676 29.9243 52.0888 30.1032 51.8588 30.1032L46.7408 30.1117C46.5194 30.1117 46.332 29.9243 46.332 29.7029V27.3526C48.7505 27.3185 50.4631 27.2929 50.4963 27.2929C50.8974 27.2929 51.8256 27.2929 52.2676 26.501Z" fill="#EDEDED"/>
<path fill-rule="evenodd" clip-rule="evenodd" d="M14.4726 23.294C14.4726 24.1507 13.7794 24.8447 12.9227 24.8464C12.0677 24.8464 11.3719 24.1533 11.3711 23.2957C11.3711 22.439 12.0643 21.7433 12.9227 21.7441C13.776 21.7433 14.4709 22.4373 14.4726 23.294Z" fill="#EDEDED"/>
<path fill-rule="evenodd" clip-rule="evenodd" d="M51.1943 8.86689C50.6876 8.98526 50.1563 9.05424 49.6487 9.14025C49.412 9.17346 49.0594 9.30801 48.8184 9.25947C48.6149 9.20667 48.5834 9.03976 48.4122 8.97078C48.2359 8.91373 48.0213 8.99974 47.8263 9.04913C47.7897 8.9546 47.7446 8.78429 47.6338 8.44621C47.5938 8.3321 47.4891 8.1175 47.3281 7.83222C48.5118 8.04597 48.1976 6.57529 48.9879 6.08989C49.5261 5.76373 50.3087 6.02006 50.8869 6.1214C51.4609 6.2057 52.189 6.44159 52.2409 7.15351C52.2912 7.91653 52.0076 8.67699 51.1943 8.86689Z" fill="#EDEDED"/>
<path fill-rule="evenodd" clip-rule="evenodd" d="M17.1424 23.2922C17.1432 23.902 16.6493 24.3984 16.037 24.3984C15.4281 24.3984 14.9308 23.9045 14.9316 23.2931C14.9299 22.6808 15.4256 22.186 16.037 22.186C16.6476 22.1852 17.1432 22.68 17.1424 23.2922Z" fill="#EDEDED"/>
<path fill-rule="evenodd" clip-rule="evenodd" d="M49.5097 23.2636C49.5131 24.1186 48.8191 24.8152 47.9598 24.8152C47.1065 24.8169 46.4091 24.122 46.4082 23.2645C46.4057 22.4103 47.1031 21.7146 47.9581 21.7129C48.8157 21.7137 49.5114 22.4061 49.5097 23.2636Z" fill="#EDEDED"/>
<path fill-rule="evenodd" clip-rule="evenodd" d="M45.7967 23.2661C45.7975 23.8784 45.3019 24.3723 44.6922 24.374C44.0833 24.3732 43.5859 23.8793 43.5859 23.2687C43.5868 22.6572 44.0799 22.1608 44.6904 22.1616C45.3019 22.1608 45.7967 22.6547 45.7967 23.2661Z" fill="#EDEDED"/>
<path fill-rule="evenodd" clip-rule="evenodd" d="M0 52.1934H11.2154V48.1484H0V52.1934Z" fill="#EDEDED"/>
<path fill-rule="evenodd" clip-rule="evenodd" d="M3.79883 47.2966V13.0205H7.41808V30.9633H16.3002V32.3769H7.41808V47.2966H3.79883Z" fill="#EDEDED"/>
<path fill-rule="evenodd" clip-rule="evenodd" d="M50.0215 52.2198H61.2361V48.1748H50.0215V52.2198Z" fill="#EDEDED"/>
<path fill-rule="evenodd" clip-rule="evenodd" d="M53.8196 47.323V32.4033H44.9375V30.9897H53.8196V13.0469H57.4388V47.323H53.8196Z" fill="#EDEDED"/>
</svg>
