<svg width="36" height="53" viewBox="0 0 36 53" fill="none" xmlns="http://www.w3.org/2000/svg">
<path fill-rule="evenodd" clip-rule="evenodd" d="M21.7153 24.3511L20.7189 12.0969L30.2311 24.019L30.7591 24.6824L21.7153 24.3511ZM5.28831 47.2245H29.916V29.2392H5.28831V47.2245ZM35.4002 24.6824L35.2895 24.5461L35.2639 24.5214L20.5146 6.64674L20.1058 6.15283C19.8163 5.89735 19.4331 5.75258 19.0158 5.75258H13.9063V4.50928H5.96106V5.75258H1.70316C0.766422 5.75258 0 6.51049 0 7.45574V51.0217C0 51.9678 0.766422 52.7249 1.70316 52.7249H34.0632C34.9999 52.7249 35.7664 51.9678 35.7664 51.0217V25.7221C35.7664 25.321 35.6301 24.9634 35.4002 24.6824Z" fill="#EDEDED"/>
<path fill-rule="evenodd" clip-rule="evenodd" d="M20.5149 6.64589L20.1062 6.15198C20.2773 6.28738 20.4136 6.45855 20.5149 6.64589Z" fill="#EDEDED"/>
<path fill-rule="evenodd" clip-rule="evenodd" d="M5.28809 3.65498H14.5848V0H5.28809V3.65498Z" fill="#EDEDED"/>
<path fill-rule="evenodd" clip-rule="evenodd" d="M17.0482 43.3239C16.7586 43.7157 16.1881 43.3665 15.8474 43.1792C15.4387 42.9578 14.6467 42.3105 14.7148 41.7485C14.834 40.9565 15.626 41.493 16.0774 41.8669C16.6735 42.4127 17.1759 43.1621 17.0482 43.3239ZM21.4168 38.1625L21.3486 38.0612L17.8912 31.8872L14.2294 38.3933C13.8888 38.9894 13.71 39.6792 13.71 40.4115C13.71 42.7185 15.5834 44.5758 17.8912 44.5758C20.199 44.5758 22.064 42.7185 22.064 40.4115C22.064 39.5846 21.8255 38.8097 21.4168 38.1625Z" fill="#EDEDED"/>
</svg>
