<svg width="48" height="40" viewBox="0 0 48 40" fill="none" xmlns="http://www.w3.org/2000/svg">
<path fill-rule="evenodd" clip-rule="evenodd" d="M32.9904 23.2013H41.7957V20.8595H32.9904V23.2013ZM21.0606 29.1368L24.0573 23.2183H21.0606L27.2933 16.031L24.9856 21.4556L27.8128 21.3874L21.0606 29.1368ZM15.4053 23.2013H12.1778V26.4288H9.83594V23.2013H6.59994V20.8595H9.83594V17.632H12.1778V20.8595H15.4053V23.2013ZM2.19727 39.9178H46.1218V11.7476H2.19727V39.9178Z" fill="#EDEDED"/>
<path fill-rule="evenodd" clip-rule="evenodd" d="M0 10.0019H47.8171V6.63818H0V10.0019Z" fill="#EDEDED"/>
<path fill-rule="evenodd" clip-rule="evenodd" d="M11.0021 2.55474V5.46714H5.89258V2.55474C5.89258 1.14112 7.0337 0 8.44732 0C9.15413 0 9.7843 0.281021 10.2527 0.749391C10.7125 1.20924 11.0021 1.84793 11.0021 2.55474" fill="#EDEDED"/>
<path fill-rule="evenodd" clip-rule="evenodd" d="M41.796 2.55474V5.46714H36.6865V2.55474C36.6865 1.14112 37.8276 0 39.2413 0C39.9481 0 40.5868 0.281021 41.0466 0.749391C41.515 1.20924 41.796 1.84793 41.796 2.55474" fill="#EDEDED"/>
</svg>
