<svg width="25" height="36" viewBox="0 0 25 36" fill="none" xmlns="http://www.w3.org/2000/svg">
<path fill-rule="evenodd" clip-rule="evenodd" d="M14.875 16.7136L14.1925 8.73385L20.7083 16.4973L21.07 16.9293L14.875 16.7136ZM3.6225 31.6083H20.4925V19.8966H3.6225V31.6083ZM24.2492 16.9293L24.1733 16.8406L24.1558 16.8245L14.0525 5.18485L13.7725 4.86322C13.5742 4.69686 13.3117 4.60259 13.0258 4.60259H9.52583V3.79297H4.08333V4.60259H1.16667C0.525 4.60259 0 5.09612 0 5.71165V34.081C0 34.6971 0.525 35.1901 1.16667 35.1901H23.3333C23.975 35.1901 24.5 34.6971 24.5 34.081V17.6064C24.5 17.3452 24.4067 17.1123 24.2492 16.9293Z" fill="#D16527"/>
<path fill-rule="evenodd" clip-rule="evenodd" d="M14.0528 5.18466L13.7728 4.86303C13.89 4.9512 13.9833 5.06267 14.0528 5.18466Z" fill="#D16527"/>
<path fill-rule="evenodd" clip-rule="evenodd" d="M3.62305 3.23699H9.9913V0.856934H3.62305V3.23699Z" fill="#D16527"/>
</svg>
