<svg width="49" height="52" viewBox="0 0 49 52" fill="none" xmlns="http://www.w3.org/2000/svg">
<path fill-rule="evenodd" clip-rule="evenodd" d="M46.4031 9.24734H46.599V9.16734L46.4031 9.24734ZM46.2924 8.27734C46.4031 8.27734 46.5053 8.29734 46.599 8.31734V8.27734H46.2924ZM29.2266 9.15734V9.24734H29.448L29.2266 9.15734Z" fill="#EDEDED"/>
<path fill-rule="evenodd" clip-rule="evenodd" d="M46.6241 14.3065L40.8674 16.3333V12.2713L46.6241 10.2445V14.3065ZM46.6241 19.5778L40.8674 21.6046V17.5511L46.6241 15.5243V19.5778ZM46.6241 24.8576L40.8674 26.8844V22.8308L46.6241 20.7956V24.8576ZM46.6241 30.1289L40.8674 32.1557V28.1021L46.6241 26.0754V30.1289ZM46.6241 35.4087L40.8674 37.4354V33.3819L46.6241 31.3552V35.4087ZM46.6241 40.68L40.8674 42.7152V38.6532L46.6241 36.6264V40.68ZM46.6241 45.9598L40.8674 47.9865V43.933L46.6241 41.9062V45.9598ZM46.6241 50.0729H40.8674V49.2128L46.6241 47.1775V50.0729ZM38.3978 50.0729H39.7348V9.10338H38.3978V50.0729ZM36.124 50.0729H37.4525V9.10338H36.124V50.0729ZM29.2261 50.0729V47.1775L34.9829 49.2128V50.0729H29.2261ZM29.2261 41.9062L34.9829 43.933V47.9865L29.2261 45.9598V41.9062ZM29.2261 36.6264L34.9829 38.6532V42.7152L29.2261 40.68V36.6264ZM29.2261 31.3552L34.9829 33.3819V37.4354L29.2261 35.4087V31.3552ZM29.2261 26.0754L34.9829 28.1021V32.1557L29.2261 30.1289V26.0754ZM29.2261 20.7956L34.9829 22.8308V26.8844L29.2261 24.8576V20.7956ZM29.2261 15.5243L34.9829 17.5511V21.6046L29.2261 19.5778V15.5243ZM29.2261 10.2445L34.9829 12.2713V16.3333L29.2261 14.3065V10.2445ZM29.2261 9.02673L29.4476 9.10338H34.9829V11.0535L29.4476 9.10338H29.2261V9.02673ZM40.8674 9.10338H46.4027L46.5986 9.03525V9.10338H46.4027L40.8674 11.0535V9.10338ZM47.1351 8.31992C47.0244 8.29438 46.9137 8.27734 46.8029 8.27734H46.5986V8.31141C46.5049 8.29438 46.4027 8.27734 46.292 8.27734H29.1154C28.2809 8.27734 27.5996 8.95861 27.5996 9.80167V49.5449C27.5996 50.388 28.2809 51.0607 29.1154 51.0607H46.8029C46.9137 51.0607 47.0244 51.0522 47.1351 51.0267C47.8078 50.8734 48.3188 50.2773 48.3188 49.5449V9.80167C48.3188 9.06931 47.8078 8.46469 47.1351 8.31992Z" fill="#EDEDED"/>
<path fill-rule="evenodd" clip-rule="evenodd" d="M38.3984 51.0692H39.7354V51.0607H38.3984V51.0692Z" fill="#EDEDED"/>
<path fill-rule="evenodd" clip-rule="evenodd" d="M36.125 51.0692H37.4535V51.0607H36.125V51.0692Z" fill="#EDEDED"/>
<path fill-rule="evenodd" clip-rule="evenodd" d="M25.2832 42.4213H26.6883V16.9199H25.2832V42.4213Z" fill="#EDEDED"/>
<path fill-rule="evenodd" clip-rule="evenodd" d="M24.4321 26.3052V33.0412H0V26.3052H10.6704C10.8067 26.7906 11.0451 27.2419 11.3602 27.6166C11.9393 28.3064 12.7483 28.6981 13.5914 28.6981C14.9539 28.6981 16.1036 27.6933 16.5123 26.3052H24.4321" fill="#EDEDED"/>
<path fill-rule="evenodd" clip-rule="evenodd" d="M15.798 2.22262H11.3867C11.5656 0.962286 12.4853 0 13.5923 0C14.2055 0 14.7675 0.298053 15.1678 0.774938C15.4999 1.15815 15.7213 1.66058 15.798 2.22262" fill="#EDEDED"/>
<path fill-rule="evenodd" clip-rule="evenodd" d="M15.8217 24.7212V25.1981C15.8217 26.6628 14.8253 27.8465 13.5905 27.8465C12.9774 27.8465 12.4153 27.5484 12.0151 27.0716C11.6149 26.5947 11.3594 25.9304 11.3594 25.1981V24.7212H15.8217" fill="#EDEDED"/>
<path fill-rule="evenodd" clip-rule="evenodd" d="M17.3039 7.63869H15.175L17.4657 8.46472C17.5254 8.49027 17.585 8.51582 17.6446 8.54988C17.6531 8.5584 17.6531 8.5584 17.6616 8.5584C17.9937 8.69465 18.2322 9.02676 18.2322 9.41849C18.2322 9.92944 17.8149 10.3467 17.3039 10.3467H15.175L17.4657 11.1727C17.5254 11.1983 17.585 11.2238 17.6446 11.2579C17.6531 11.2664 17.6531 11.2664 17.6616 11.2664C17.9937 11.4027 18.2322 11.7348 18.2322 12.118C18.2322 12.6375 17.8149 13.0547 17.3039 13.0547H15.2005L17.4657 13.8723C17.5339 13.8978 17.602 13.9319 17.6616 13.9744C17.9937 14.1107 18.2322 14.4428 18.2322 14.826C18.2322 15.337 17.8149 15.7542 17.3039 15.7542H15.175L17.4657 16.5803C17.5254 16.6058 17.585 16.6314 17.6361 16.6654C17.9852 16.7932 18.2322 17.1338 18.2322 17.5341C18.2322 18.045 17.8149 18.4623 17.3039 18.4623H15.175L17.4657 19.2883C17.5254 19.3139 17.585 19.3394 17.6446 19.3735C17.6531 19.382 17.6531 19.382 17.6616 19.382C17.9937 19.5182 18.2322 19.8503 18.2322 20.2336C18.2322 20.7445 17.8149 21.1618 17.3039 21.1618H15.175L17.4657 21.9878C17.5254 22.0134 17.585 22.0389 17.6446 22.073C17.6531 22.0815 17.6531 22.0815 17.6616 22.0815C17.9937 22.2177 18.2322 22.5499 18.2322 22.9416C18.2322 23.4525 17.8149 23.8698 17.3039 23.8698H9.57151C9.05204 23.8698 8.63477 23.4525 8.63477 22.9416C8.63477 22.4221 9.05204 22.0048 9.57151 22.0048H12.0156L9.6737 21.1618H9.57151C9.05204 21.1618 8.63477 20.7445 8.63477 20.2336C8.63477 19.7226 9.05204 19.3053 9.57151 19.3053H12.0326L9.69925 18.4623H9.57151C9.05204 18.4623 8.63477 18.045 8.63477 17.5341C8.63477 17.0146 9.05204 16.5973 9.57151 16.5973H12.0156L9.6737 15.7542H9.57151C9.05204 15.7542 8.63477 15.337 8.63477 14.826C8.63477 14.3151 9.05204 13.8978 9.57151 13.8978H12.0326L9.69925 13.0547H9.57151C9.05204 13.0547 8.63477 12.6375 8.63477 12.118C8.63477 11.6071 9.05204 11.1898 9.57151 11.1898H12.0326L9.69925 10.3467H9.57151C9.05204 10.3467 8.63477 9.92944 8.63477 9.41849C8.63477 8.89903 9.05204 8.48175 9.57151 8.48175H12.0156L9.6737 7.63869H9.57151C9.05204 7.63869 8.63477 7.22141 8.63477 6.71047C8.63477 6.19952 9.05204 5.78224 9.57151 5.78224H12.0326L9.69925 4.93918H9.57151C9.05204 4.93918 8.63477 4.52191 8.63477 4.00244C8.63477 3.49149 9.05204 3.07422 9.57151 3.07422H17.3039C17.8149 3.07422 18.2322 3.49149 18.2322 4.00244C18.2322 4.52191 17.8149 4.93918 17.3039 4.93918H15.175L17.4657 5.76521C17.5254 5.79076 17.585 5.81631 17.6446 5.85037C17.6531 5.85889 17.6531 5.85889 17.6616 5.85889C17.9937 5.99514 18.2322 6.32726 18.2322 6.71047C18.2322 7.22141 17.8149 7.63869 17.3039 7.63869" fill="#EDEDED"/>
<path fill-rule="evenodd" clip-rule="evenodd" d="M29.4486 9.10327H29.2272V9.02663L29.4486 9.10327" fill="#EDEDED"/>
<path fill-rule="evenodd" clip-rule="evenodd" d="M46.5986 8.27741V8.31147C46.5049 8.29444 46.4027 8.27741 46.292 8.27741H46.5986" fill="#EDEDED"/>
<path fill-rule="evenodd" clip-rule="evenodd" d="M46.5999 9.03528V9.10341H46.404L46.5999 9.03528" fill="#EDEDED"/>
</svg>
