<svg width="25" height="52" viewBox="0 0 25 52" fill="none" xmlns="http://www.w3.org/2000/svg">
<path fill-rule="evenodd" clip-rule="evenodd" d="M14.521 20.2881L11.6342 36.9322H3.06641L7.94341 20.2881H14.521Z" fill="#EDEDED"/>
<path fill-rule="evenodd" clip-rule="evenodd" d="M0 6.43709H24.1346V0H0V6.43709Z" fill="#EDEDED"/>
<path fill-rule="evenodd" clip-rule="evenodd" d="M0 10.6744H24.1346V8.19287H0V10.6744Z" fill="#EDEDED"/>
<path fill-rule="evenodd" clip-rule="evenodd" d="M12.1333 18.1352C11.0407 18.1352 10.144 17.2606 10.1202 16.168V16.1212C10.1202 15.0056 11.0254 14.1081 12.1333 14.1081C13.2489 14.1081 14.155 15.0056 14.155 16.1212C14.155 16.4729 14.0604 16.8084 13.9046 17.0963C13.5538 17.7205 12.898 18.1352 12.1333 18.1352ZM0 12.439V23.799H6.04707L6.98381 20.2956C6.98381 19.8596 7.28782 19.5079 7.68551 19.5079H16.4721C16.8621 19.5079 17.1747 19.8596 17.1747 20.2956L18.2272 23.799H24.1346V12.439H0Z" fill="#EDEDED"/>
<path fill-rule="evenodd" clip-rule="evenodd" d="M6.75729 49.5814C3.85425 49.5814 1.49027 47.225 1.49027 44.3143C1.49027 41.4036 3.85425 39.0465 6.75729 39.0465C9.66799 39.0465 12.0243 41.4036 12.0243 44.3143C12.0243 47.225 9.66799 49.5814 6.75729 49.5814ZM0 51.2351H13.5222V37.7129H0V51.2351Z" fill="#EDEDED"/>
<path fill-rule="evenodd" clip-rule="evenodd" d="M6.74684 47.6261C5.13991 47.6261 3.79015 46.4637 3.50062 44.9342H2.07422C2.37057 47.2437 4.3522 49.0312 6.74684 49.0312C9.14319 49.0312 11.1257 47.2437 11.422 44.9342H9.99306C9.70523 46.4637 8.35547 47.6261 6.74684 47.6261ZM6.74684 41.0016C8.35547 41.0016 9.70523 42.1564 9.99306 43.6867H11.422C11.1257 41.3763 9.14319 39.5889 6.74684 39.5889C4.3522 39.5889 2.37057 41.3763 2.07422 43.6867H3.50062C3.79015 42.1564 5.13991 41.0016 6.74684 41.0016Z" fill="#EDEDED"/>
</svg>
