<svg width="35" height="35" viewBox="0 0 35 35" fill="none" xmlns="http://www.w3.org/2000/svg">
<path fill-rule="evenodd" clip-rule="evenodd" d="M0 17.5C0 7.84635 7.84635 0 17.5 0C27.1537 0 34.9559 7.84635 35 17.5C35 27.1537 27.1537 35 17.5 35C7.84635 35 0 27.1537 0 17.5ZM24.0139 28.7961C24.7934 28.3507 25.5171 27.794 26.1852 27.1816C28.8576 24.7876 30.5278 21.3357 30.5278 17.5499C30.5278 10.3679 24.682 4.52204 17.5 4.52204C10.318 4.52204 4.47216 10.3679 4.47216 17.5499C4.47216 21.3914 6.1424 24.8432 8.81478 27.2372C9.48287 27.794 10.2066 28.3507 10.9861 28.7961C12.9347 29.9096 15.106 30.522 17.5 30.522C19.894 30.522 22.121 29.9096 24.0139 28.7961Z" fill="#D16527"/>
<path fill-rule="evenodd" clip-rule="evenodd" d="M16.3541 15.4281C16.3265 15.4373 16.3008 15.4465 16.2762 15.4553C16.1831 15.4887 16.1061 15.5163 16.0014 15.5163C15.737 15.5163 15.4725 15.384 15.3402 15.1196C15.1639 14.7669 15.2962 14.3261 15.6488 14.1498C16.0014 13.9735 16.4423 14.1057 16.6186 14.4583C16.839 14.7669 16.7067 15.2077 16.3541 15.4281ZM14.3705 18.117C14.7672 18.117 15.1198 17.8085 15.1198 17.4117C15.1639 17.015 14.8554 16.6624 14.3705 16.6624C13.9737 16.6624 13.6211 16.9709 13.6211 17.3677C13.6211 17.7644 13.9297 18.117 14.3264 18.117H14.3705ZM15.8692 20.85C16.1337 20.85 16.3541 20.7178 16.4863 20.4974C16.7067 20.1447 16.5745 19.7039 16.2659 19.4835C15.9133 19.2631 15.4725 19.3513 15.2521 19.7039C15.0317 20.0566 15.1198 20.4974 15.4725 20.7178C15.6047 20.806 15.737 20.85 15.8692 20.85ZM19.2297 20.8772C19.2542 20.8684 19.2799 20.8592 19.3075 20.85C19.6601 20.6737 19.7924 20.2329 19.572 19.8803C19.3957 19.5276 18.9548 19.3954 18.6022 19.5717C18.2496 19.748 18.1173 20.1888 18.2936 20.5415C18.4259 20.806 18.6904 20.9382 18.9548 20.9382C19.0595 20.9382 19.1365 20.9106 19.2297 20.8772ZM19.1312 15.6044C18.9989 15.6044 18.8667 15.5604 18.7344 15.4722C18.3818 15.2518 18.2936 14.811 18.514 14.4583C18.7344 14.1057 19.1753 14.0175 19.5279 14.2379H19.572C19.9246 14.4583 20.0128 14.8992 19.7924 15.2518C19.6161 15.4722 19.3516 15.6044 19.1312 15.6044ZM19.8365 17.5881C19.8365 17.9848 20.145 18.3374 20.5858 18.3374C20.9826 18.3374 21.2911 17.9848 21.2911 17.6321C21.2911 17.2354 20.9826 16.8828 20.5858 16.8828C20.1891 16.8828 19.8365 17.1913 19.8365 17.5881Z" fill="#D16527"/>
<circle cx="17.4999" cy="17.4999" r="1.23426" fill="#D16527"/>
<path fill-rule="evenodd" clip-rule="evenodd" d="M8.41935 16.0894L10.976 17.9407C11.9458 18.646 12.3425 19.8803 11.9458 20.9382L10.976 23.9357C9.30096 22.3047 8.28711 20.0125 8.28711 17.4559C8.28711 17.015 8.33119 16.5302 8.41935 16.0894ZM8.9924 17.4559C8.9924 19.3954 9.65361 21.2027 10.7556 22.6133L11.1083 21.5113C10.4471 20.4974 10.0503 19.3072 9.96217 18.0289L8.9924 17.3236V17.4559Z" fill="#D16527"/>
<path fill-rule="evenodd" clip-rule="evenodd" d="M12.4746 13.3565H9.30078C10.6232 10.7557 13.0917 8.90432 16.0451 8.41943L15.0753 11.461C14.6786 12.6071 13.6648 13.3565 12.4746 13.3565ZM11.6371 12.6512C12.4305 11.6814 13.4884 10.932 14.6786 10.4471L15.0753 9.30105C13.1799 9.87409 11.593 11.0643 10.491 12.6512H11.6371Z" fill="#D16527"/>
<path fill-rule="evenodd" clip-rule="evenodd" d="M19.9249 11.461L18.9551 8.41943C21.9085 8.90432 24.377 10.7557 25.6994 13.3565H22.5256C21.3354 13.3565 20.2775 12.563 19.9249 11.461ZM19.9249 9.34513L20.2775 10.4471C21.4677 10.932 22.5256 11.7255 23.3631 12.6953H24.5092C23.4072 11.1084 21.8203 9.91817 19.9249 9.34513Z" fill="#D16527"/>
<path fill-rule="evenodd" clip-rule="evenodd" d="M24.0235 17.9407L26.5802 16.0894C26.6023 16.3318 26.6243 16.5632 26.6463 16.7946C26.6684 17.0261 26.6904 17.2575 26.7125 17.4999C26.7125 20.0125 25.6986 22.3047 24.0235 23.9798L23.0538 20.9823C22.6571 19.8362 23.0538 18.646 24.0235 17.9407ZM23.8913 21.5113L24.244 22.6133C25.346 21.2027 26.0072 19.4395 26.0072 17.4559V17.3236L25.0374 18.0289C24.9492 19.3072 24.5525 20.4974 23.8913 21.5113Z" fill="#D16527"/>
<path fill-rule="evenodd" clip-rule="evenodd" d="M15.913 23.8476C16.8387 23.1423 18.117 23.1423 19.0868 23.8476L21.5994 25.699C20.3651 26.3161 18.9986 26.6687 17.4999 26.6687C16.0452 26.6687 14.6346 26.3161 13.4004 25.699L15.913 23.8476ZM15.6926 24.8173L14.7228 25.5226C15.6044 25.8312 16.5301 25.9634 17.4999 26.0075C18.4697 26.0075 19.3954 25.8312 20.277 25.5226L19.3072 24.8173C18.7341 24.9496 18.117 25.0377 17.4999 25.0377C16.8828 25.0377 16.2656 24.9496 15.6926 24.8173Z" fill="#D16527"/>
</svg>
